<svg width="53" height="66" viewBox="0 0 53 66" fill="none" xmlns="http://www.w3.org/2000/svg">
<path d="M4.70096 59.5634C6.87763 59.5634 8.64216 57.7989 8.64216 55.6222C8.64216 53.4456 6.87763 51.681 4.70096 51.681C2.5243 51.681 0.759766 53.4456 0.759766 55.6222C0.759766 57.7989 2.5243 59.5634 4.70096 59.5634Z" fill="#1DB779"/>
<path d="M4.70051 60.3234C2.1092 60.3234 0 58.2142 0 55.6229C0 53.0316 2.1092 50.9224 4.70051 50.9224C7.29182 50.9224 9.40102 53.0316 9.40102 55.6229C9.40102 58.2142 7.29182 60.3234 4.70051 60.3234ZM4.70051 52.4289C2.94083 52.4289 1.50657 53.8632 1.50657 55.6229C1.50657 57.3826 2.94083 58.8168 4.70051 58.8168C6.46019 58.8168 7.89445 57.3826 7.89445 55.6229C7.89445 53.8632 6.46019 52.4289 4.70051 52.4289Z" fill="#1E1E1E"/>
<path d="M33.652 0.759155H14.4522C9.20931 0.759155 4.9668 5.00167 4.9668 10.2445V55.7551C4.9668 60.998 9.20931 65.2405 14.4522 65.2405H41.8357C47.0786 65.2405 51.3211 60.998 51.3211 55.7551V18.4283L33.652 0.759155Z" fill="white"/>
<path d="M41.847 66H14.4635C8.81079 66 4.21875 61.408 4.21875 55.7553V10.2447C4.21875 4.59204 8.81079 0 14.4635 0H33.6632C33.8681 0 34.0489 0.0843682 34.1936 0.216947L51.8747 17.8981C52.0193 18.0427 52.0917 18.2356 52.0917 18.4284V55.7553C52.0917 61.408 47.4996 66 41.847 66ZM14.4635 1.50657C9.64242 1.50657 5.72532 5.42367 5.72532 10.2447V55.7553C5.72532 60.5763 9.64242 64.4934 14.4635 64.4934H41.847C46.668 64.4934 50.5851 60.5763 50.5851 55.7553V18.7418L33.3499 1.50657H14.4635Z" fill="#1E1E1E"/>
<path d="M33.6504 0.759155L51.3315 18.4403H37.4229C35.3378 18.4403 33.6504 16.7529 33.6504 14.6678V0.759155Z" fill="#E3E3E2"/>
<path d="M51.3308 19.188H37.4221C34.9272 19.188 32.9023 17.1631 32.9023 14.6682V0.759553C32.9023 0.458238 33.0831 0.181029 33.3724 0.0605028C33.6496 -0.0600231 33.975 0.0122924 34.192 0.229239L51.837 17.8742C51.9937 18.0068 52.0901 18.2117 52.0901 18.4407C52.0901 18.8625 51.7526 19.2 51.3308 19.2V19.188ZM34.4089 2.56744V14.6562C34.4089 16.3195 35.7588 17.6693 37.4221 17.6693H49.5108L34.4089 2.56744Z" fill="#1E1E1E"/>
<path d="M4.57623 35.2002C2.45675 35.2002 0.732422 36.9126 0.732422 39.0175V55.0002H0.804269C1.15153 53.2402 2.70821 51.9083 4.57623 51.9083H39.8171C41.721 51.9083 43.2658 50.3742 43.2658 48.4834V38.637C43.2658 36.7461 41.721 35.2121 39.8171 35.2121H4.57623V35.2002Z" fill="#1DB779" stroke="#1E1E1E" stroke-miterlimit="10"/>
<path d="M6.716 44.446V46H5.162V44.446H6.716ZM9.00248 36.032H12.2365C13.9305 36.032 15.1765 36.424 15.9745 37.208C16.7865 37.992 17.1785 39.238 17.1785 40.932C17.1785 42.612 16.8145 43.872 16.0585 44.726C15.3165 45.58 14.1265 46 12.4885 46H9.00248V36.032ZM10.3045 37.166L10.3185 44.88H12.3205C13.5665 44.88 14.4765 44.572 15.0365 43.956C15.5965 43.34 15.8765 42.388 15.8765 41.086C15.8765 39.728 15.6105 38.734 15.0505 38.104C14.5045 37.488 13.5665 37.166 12.2505 37.166H10.3045ZM17.9499 36.032H19.3079L21.2819 44.362L23.5359 36.032H24.9779L27.2039 44.362L29.2479 36.032H30.5639L27.9039 46H26.5179L24.2219 37.656L21.8979 46H20.5119L17.9499 36.032ZM40.4728 40.722L40.4588 46.014H39.6188L39.2828 44.768C38.4848 45.748 37.4068 46.252 36.0628 46.252C34.6488 46.252 33.5008 45.776 32.6328 44.824C31.7648 43.872 31.3308 42.64 31.3308 41.114C31.3308 39.588 31.7508 38.328 32.6188 37.334C33.4868 36.326 34.6628 35.836 36.1748 35.836C36.8608 35.836 37.5048 35.948 38.1068 36.186C38.6948 36.424 39.2128 36.802 39.6328 37.306C40.0528 37.81 40.2908 38.412 40.3468 39.098H39.0588C38.9468 38.454 38.6388 37.922 38.1068 37.53C37.5748 37.138 36.9308 36.928 36.1608 36.928C35.0828 36.928 34.2288 37.306 33.5988 38.048C32.9548 38.79 32.6468 39.798 32.6468 41.058C32.6468 42.318 32.9548 43.312 33.5988 44.04C34.2288 44.782 35.0828 45.146 36.1608 45.146C37.1688 45.146 37.9248 44.852 38.4568 44.236C38.9888 43.62 39.2688 42.808 39.2968 41.8H36.1048V40.722H40.4728Z" fill="#1E1E1E"/>
</svg>
