<svg width="49" height="64" viewBox="0 0 49 64" fill="none" xmlns="http://www.w3.org/2000/svg">
<path d="M48.8391 17.819C48.6379 17.2877 48.1954 16.9199 47.7931 16.5113C46.546 15.2443 45.2586 13.9366 44.0115 12.6696C42.2011 10.8306 40.3908 8.99152 38.5805 7.15245C36.5287 5.06818 34.5172 2.49349 32.2241 0.695292C30.7356 -0.449015 27.7586 0.164007 26.069 0.164007C22.2471 0.164007 18.4655 0.164007 14.6437 0.164007C10.7414 0.164007 7.16092 1.30831 4.78736 4.70037C3.13793 7.07072 2.89655 9.72715 2.89655 12.5062C2.89655 15.4487 2.89655 18.3912 2.89655 21.3337C2.89655 25.584 2.89655 29.8751 2.89655 34.1254C1.24713 34.4115 0 35.8419 0 37.5583V46.1406C0 47.8571 1.2069 49.2875 2.81609 49.5736C2.77586 54.3551 3.13793 59.1776 7.52299 62.2018C10.1782 64 13.0345 64 16.0517 64C19.8736 64 23.6954 64 27.5172 64C30.8563 64 34.1954 64 37.5345 64C41.2356 64 44.6552 62.8148 46.9483 59.7088C48.7586 57.2568 49 54.4777 49 51.5761C49 48.3066 49 45.0372 49 41.7677C49 34.4523 49 27.137 49 19.8216C49 19.372 48.9598 18.9225 49 18.5138C49 18.1868 48.9598 17.9825 48.8391 17.819ZM32.7069 9.64541C32.7069 8.46023 32.7069 7.23419 32.7069 6.04901C36.2069 9.60454 39.7069 13.1601 43.2069 16.7156C42.0402 16.7156 40.8333 16.7156 39.6667 16.7156C38.0977 16.7156 34.5172 17.4103 33.2701 16.1434C32.023 14.8765 32.7069 11.2393 32.7069 9.64541ZM45.5805 52.1891C45.5805 56.562 43.2471 60.3627 38.5402 60.5262C31.6609 60.5262 24.8218 60.5262 17.9425 60.5262C14.8046 60.5262 11.2644 61.0166 8.68966 58.7689C6.15517 56.562 6.23563 53.5786 6.23563 50.5544C6.23563 50.2274 6.23563 49.9005 6.23563 49.6144H26.7126C28.6034 49.6144 30.1322 48.0614 30.1322 46.1406V37.5583C30.1322 35.6375 28.6034 34.0845 26.7126 34.0845H6.27586C6.27586 31.469 6.27586 28.8534 6.27586 26.2379C6.27586 22.4371 6.27586 18.6364 6.27586 14.8357C6.27586 12.6288 5.99425 10.0541 6.83908 7.96982C9.01149 2.82043 14.5632 3.6378 19.069 3.6378C22.4885 3.6378 25.908 3.6378 29.2874 3.6378C29.2874 6.00815 29.2874 8.3785 29.2874 10.7488C29.2874 13.4053 28.7644 16.593 30.8161 18.6364C32.8276 20.6798 35.9655 20.1894 38.5805 20.1894C40.9138 20.1894 43.2471 20.1894 45.5805 20.1894C45.5805 30.856 45.5805 41.5225 45.5805 52.1891Z" fill="url(#paint0_linear_0_1)"/>
<path d="M2.48793 46.0923C2.25355 46.0923 2.05232 46.0095 1.88423 45.8438C1.71851 45.6757 1.63565 45.4744 1.63565 45.2401C1.63565 45.008 1.71851 44.8092 1.88423 44.6435C2.05232 44.4777 2.25355 44.3949 2.48793 44.3949C2.7152 44.3949 2.91406 44.4777 3.08452 44.6435C3.25497 44.8092 3.3402 45.008 3.3402 45.2401C3.3402 45.3963 3.29995 45.5395 3.21946 45.6697C3.14134 45.7976 3.03835 45.9006 2.91051 45.9787C2.78267 46.0545 2.64181 46.0923 2.48793 46.0923ZM7.18874 46H4.61062V38.7273H7.21005C7.94158 38.7273 8.57132 38.8729 9.09925 39.1641C9.62719 39.4529 10.0332 39.8684 10.3173 40.4105C10.6038 40.9527 10.747 41.6013 10.747 42.3565C10.747 43.1141 10.6038 43.7652 10.3173 44.3097C10.0332 44.8542 9.62482 45.272 9.09215 45.5632C8.56185 45.8544 7.92738 46 7.18874 46ZM6.14826 44.6825H7.12482C7.57937 44.6825 7.96171 44.602 8.27184 44.4411C8.58434 44.2777 8.81871 44.0256 8.97496 43.6847C9.13358 43.3414 9.21289 42.8987 9.21289 42.3565C9.21289 41.8191 9.13358 41.38 8.97496 41.0391C8.81871 40.6982 8.58552 40.4472 8.27539 40.2862C7.96526 40.1252 7.58292 40.0447 7.12837 40.0447H6.14826V44.6825ZM13.2496 46L11.1687 38.7273H12.8484L14.0522 43.7805H14.1126L15.4407 38.7273H16.8789L18.2035 43.7912H18.2674L19.4712 38.7273H21.1509L19.07 46H17.5714L16.1864 41.245H16.1296L14.7482 46H13.2496ZM26.3862 41.0781C26.3365 40.9053 26.2666 40.7526 26.1767 40.62C26.0867 40.4851 25.9766 40.3714 25.8464 40.2791C25.7186 40.1844 25.5718 40.1122 25.4061 40.0625C25.2427 40.0128 25.0616 39.9879 24.8627 39.9879C24.4911 39.9879 24.1644 40.0803 23.8826 40.2649C23.6033 40.4496 23.3855 40.7183 23.2292 41.071C23.073 41.4214 22.9949 41.8499 22.9949 42.3565C22.9949 42.8632 23.0718 43.294 23.2257 43.6491C23.3796 44.0043 23.5974 44.2753 23.8791 44.4624C24.1608 44.647 24.4934 44.7393 24.877 44.7393C25.225 44.7393 25.5221 44.6778 25.7683 44.5547C26.0169 44.4292 26.2063 44.2528 26.3365 44.0256C26.469 43.7983 26.5353 43.5296 26.5353 43.2195L26.8478 43.2656H24.9728V42.108H28.0162V43.0241C28.0162 43.6634 27.8812 44.2126 27.6113 44.6719C27.3414 45.1288 26.9698 45.4815 26.4963 45.7301C26.0228 45.9763 25.4806 46.0994 24.8699 46.0994C24.188 46.0994 23.5891 45.9491 23.073 45.6484C22.5569 45.3454 22.1544 44.9157 21.8656 44.3594C21.5791 43.8007 21.4359 43.1378 21.4359 42.3707C21.4359 41.7812 21.5211 41.2557 21.6916 40.794C21.8644 40.33 22.1059 39.937 22.416 39.6151C22.7261 39.2931 23.0872 39.0481 23.4991 38.88C23.911 38.7119 24.3573 38.6278 24.8379 38.6278C25.2498 38.6278 25.6333 38.6882 25.9885 38.8089C26.3436 38.9273 26.6584 39.0954 26.9331 39.3132C27.21 39.531 27.4361 39.7902 27.6113 40.0909C27.7865 40.3892 27.899 40.7183 27.9487 41.0781H26.3862Z" fill="#1E1E1E"/>
<defs>
<linearGradient id="paint0_linear_0_1" x1="0" y1="31.9873" x2="48.9994" y2="31.9873" gradientUnits="userSpaceOnUse">
<stop stop-color="#118154"/>
<stop offset="0.5769" stop-color="#D5BE3F"/>
<stop offset="1" stop-color="#DE9452"/>
</linearGradient>
</defs>
</svg>
