<svg width="30" height="36" viewBox="0 0 30 36" fill="none" xmlns="http://www.w3.org/2000/svg">
<path d="M21.3004 17.2911H27.6268C27.8503 17.2911 28.9506 17.9628 29.1569 18.175C29.9305 18.9351 30.1024 20.1018 29.9133 21.1625C29.8446 21.6221 29.3288 22.2585 29.3288 22.4176C29.3288 22.5943 29.8446 23.2307 29.9133 23.6727C30.0165 24.3444 29.9821 25.1399 29.7414 25.7586C29.6555 25.9884 29.3116 26.3243 29.3116 26.5188C29.3116 26.6602 29.7414 27.2435 29.8446 27.5617C30.3775 29.2764 29.5007 31.0265 27.816 31.5038C28.3833 33.5191 27.4721 35.2868 25.4779 35.7287C21.6442 35.4813 17.2775 36.2768 13.547 35.2868C12.8421 35.0924 10.3665 34.0494 9.91953 34.0847C9.5757 34.1201 9.28345 34.8272 8.90523 35.11C8.59578 35.3398 7.89093 35.6757 7.51271 35.7287C6.22335 35.9055 2.32086 35.9055 0.997111 35.7287C0.171916 35.6227 0.0859578 35.0393 0 34.2969L0.0687663 16.1597C0.206299 15.6647 0.32664 15.3112 0.87677 15.2228C2.0458 15.0284 6.15458 15.0637 7.39237 15.2228C7.83935 15.2758 8.54421 15.5764 8.90523 15.8415C9.86796 16.5663 9.3866 17.5032 10.7791 16.7961C12.7733 15.7708 14.4581 13.0661 15.1973 10.9448C15.4896 10.114 15.8678 7.83359 16.2288 7.33862C16.7446 6.61384 18.2746 6.87901 19.0311 7.07346C23.4321 8.20482 21.9192 14.0207 21.2832 17.2734L21.3004 17.2911ZM16.2976 17.5916C16.8305 16.9198 18.5153 17.5386 19.0483 17.2204C19.3233 17.0436 19.7359 15.0284 19.8047 14.5864C19.9766 13.5434 20.1829 11.2807 19.9078 10.3084C19.6843 9.51296 18.1027 8.46998 17.7073 9.42457C17.3807 10.2201 17.2603 11.3514 16.8821 12.2707C15.7131 15.1874 13.2547 18.4931 10.1258 19.2179L9.9883 31.9104C11.9138 32.4054 13.9252 33.5191 15.9022 33.6958C18.2059 33.8903 22.6757 33.9256 24.9622 33.6958C25.8561 33.6074 26.2171 32.9534 25.8561 32.0695C25.5639 31.3447 24.0682 32.0341 24.0682 30.6023C24.0682 28.3219 28.2114 30.9381 27.9363 28.2865C27.7472 26.5188 23.3805 28.7992 24.137 26.0061C24.5152 24.6273 28.1942 26.6425 27.9363 24.1853C27.7472 22.3822 23.8275 24.6803 24.1026 22.1347C24.2917 20.4554 27.8503 22.3469 27.9535 20.473C27.9879 19.8013 27.7816 19.3947 27.0939 19.3063C23.9822 18.8997 20.0626 19.6245 16.8477 19.3063C16.0913 19.2179 15.8506 18.1219 16.2804 17.5739L16.2976 17.5916ZM2.01141 33.6958H7.39237C7.82216 33.6958 8.09723 32.7766 8.13161 32.4054C8.54421 27.986 7.80497 22.9302 8.13161 18.4401C8.1488 18.1042 7.70182 17.2734 7.39237 17.2734H2.01141V33.6958Z" fill="url(#paint0_linear_1004_3408)"/>
<path d="M18.7318 0.900717C20.3601 0.404626 20.149 4.74542 19.5912 5.44822C17.9478 7.49459 17.4352 1.29346 18.7318 0.900717Z" fill="url(#paint1_linear_1004_3408)"/>
<path d="M14.8149 6.59345C14.5558 6.86239 14.129 6.92216 13.7784 6.80263C13.5497 6.72792 12.1931 5.42805 12.1016 5.20393C11.69 4.21782 12.6046 3.47076 13.4888 4.08335C14.129 4.51664 15.5161 5.83146 14.7997 6.59345H14.8149Z" fill="url(#paint2_linear_1004_3408)"/>
<path d="M23.2003 6.59933C22.4839 5.8351 23.871 4.53143 24.5112 4.08189C25.3954 3.46751 26.31 4.23173 25.8984 5.20574C25.807 5.43051 24.4503 6.73419 24.2216 6.80911C23.871 6.914 23.4442 6.86905 23.1851 6.59933H23.2003Z" fill="url(#paint3_linear_1004_3408)"/>
<path d="M5.75255 29.1931C6.60772 30.2161 5.03421 31.47 4.24745 30.5295C3.39228 29.5066 4.96579 28.2527 5.75255 29.1931Z" fill="url(#paint4_linear_1004_3408)"/>
<defs>
<linearGradient id="paint0_linear_1004_3408" x1="0" y1="21.3613" x2="30" y2="21.3613" gradientUnits="userSpaceOnUse">
<stop stop-color="#1DB779"/>
<stop offset="0.490385" stop-color="#FBE049"/>
<stop offset="1" stop-color="#FBC391"/>
</linearGradient>
<linearGradient id="paint1_linear_1004_3408" x1="18" y1="3.36133" x2="20" y2="3.36133" gradientUnits="userSpaceOnUse">
<stop stop-color="#1DB779"/>
<stop offset="0.490385" stop-color="#FBE049"/>
<stop offset="1" stop-color="#FBC391"/>
</linearGradient>
<linearGradient id="paint2_linear_1004_3408" x1="12" y1="5.36133" x2="15" y2="5.36133" gradientUnits="userSpaceOnUse">
<stop stop-color="#1DB779"/>
<stop offset="0.490385" stop-color="#FBE049"/>
<stop offset="1" stop-color="#FBC391"/>
</linearGradient>
<linearGradient id="paint3_linear_1004_3408" x1="23" y1="5.36133" x2="26" y2="5.36133" gradientUnits="userSpaceOnUse">
<stop stop-color="#1DB779"/>
<stop offset="0.490385" stop-color="#FBE049"/>
<stop offset="1" stop-color="#FBC391"/>
</linearGradient>
<linearGradient id="paint4_linear_1004_3408" x1="4" y1="29.8613" x2="6" y2="29.8613" gradientUnits="userSpaceOnUse">
<stop stop-color="#1DB779"/>
<stop offset="0.490385" stop-color="#FBE049"/>
<stop offset="1" stop-color="#FBC391"/>
</linearGradient>
</defs>
</svg>
