<svg width="30" height="30" viewBox="0 0 30 30" fill="none" xmlns="http://www.w3.org/2000/svg">
<path d="M14.7256 0H15.1601C19.0359 2.23894 23.0681 4.33902 26.8917 6.68209C27.5348 7.08128 28.0736 7.16807 28.1605 8.00116C28.5602 12.427 27.8476 17.4602 28.1605 21.9555C28.2126 22.7018 27.3784 22.9795 26.8222 23.3266C23.1376 25.5829 19.2618 27.5441 15.5946 29.8178C15.2122 30.0607 14.7951 30.0607 14.4127 29.8178C10.7455 27.3011 6.01806 25.444 2.45511 22.8927C2.09013 22.6323 1.81205 22.5282 1.84681 21.9728C2.15965 17.4776 1.42968 12.4443 1.84681 8.01851C1.91633 7.18542 2.52463 7.06393 3.18508 6.64738C6.95659 4.33902 10.9193 2.27365 14.7256 0ZM14.9515 1.87446L4.78406 7.77553L4.6624 8.00116C8.10369 9.97975 11.5102 12.0451 15.0384 13.9022L25.3275 8.00116L14.9689 1.87446H14.9515ZM14.1694 27.5268V15.6378L3.60221 9.59792V20.376C3.77601 20.4108 3.89767 20.3413 4.03671 20.2893C6.29614 19.3347 8.72938 17.2867 11.0236 16.2453C11.9273 15.8808 12.5183 16.5577 12.2228 17.4429C9.92861 19.1785 7.11302 20.324 4.67978 21.8687C4.55812 21.9381 4.47122 21.8687 4.52336 22.129L14.152 27.5268H14.1694ZM26.3703 9.59792L15.8031 15.6378V27.5268L25.4318 22.129C25.4839 21.8513 25.397 21.9381 25.2754 21.8687C24.2499 21.2091 17.9757 17.9462 17.7323 17.4429C17.35 16.6271 18.0973 15.8461 18.9316 16.2453L25.9184 20.2893L26.3529 20.376V9.59792H26.3703Z" fill="url(#paint0_linear_999_3395)"/>
<path d="M1.75181 28.2797H4.62057C4.62057 28.2797 5.03754 28.6766 5.0709 28.7262C5.27104 29.1563 5.03754 29.7682 4.57053 29.9005C4.15356 30.0328 1.43491 30.0163 0.901186 29.9501C0.367463 29.884 0.117281 29.6359 0.0505652 29.1066C-0.0161502 28.5774 -0.032829 25.7326 0.100602 25.3522C0.384142 24.5087 1.73513 24.8891 1.73513 25.4184V28.2631L1.75181 28.2797Z" fill="url(#paint1_linear_999_3395)"/>
<path d="M28.2642 28.2614V25.4138C28.2642 24.9006 29.6324 24.5033 29.8994 25.3476C30.0329 25.7284 30.0162 28.576 29.9494 29.1057C29.8827 29.6355 29.6157 29.8839 29.0985 29.9501C28.5812 30.0163 25.8447 30.0329 25.4275 29.9004C24.977 29.7514 24.7267 29.1554 24.927 28.725C24.9603 28.6753 25.3441 28.278 25.3775 28.278H28.2475L28.2642 28.2614Z" fill="url(#paint2_linear_999_3395)"/>
<path d="M1.75936 1.73708V4.62011C1.75936 5.15649 0.279685 5.47496 0.0947264 4.58659C-0.0397892 4.03345 -0.00616028 1.51918 0.0442831 0.882234C0.111541 0.362618 0.380572 0.0944297 0.90182 0.0441444C1.42307 -0.00614099 4.18064 -0.0396646 4.601 0.0944297C5.52579 0.37938 5.10543 1.73708 4.53374 1.73708H1.75936Z" fill="url(#paint3_linear_999_3395)"/>
<path d="M25.4656 1.74004C24.7448 1.58951 24.594 0.351778 25.3986 0.100887C25.8177 -0.0329219 28.55 -0.0161959 29.0865 0.0507084C29.6229 0.117613 29.8743 0.38523 29.9414 0.903738C30.0084 1.53933 30.0419 4.04824 29.9078 4.6002C29.7067 5.46995 28.2483 5.15216 28.2483 4.63365V1.75677C27.4437 1.63968 26.2032 1.9073 25.4824 1.75677L25.4656 1.74004Z" fill="url(#paint4_linear_999_3395)"/>
<defs>
<linearGradient id="paint0_linear_999_3395" x1="1.71436" y1="15" x2="28.2858" y2="15" gradientUnits="userSpaceOnUse">
<stop stop-color="#1DB779"/>
<stop offset="0.490385" stop-color="#FBE049"/>
<stop offset="1" stop-color="#FBC391"/>
</linearGradient>
<linearGradient id="paint1_linear_999_3395" x1="0" y1="27.4289" x2="5.14286" y2="27.4289" gradientUnits="userSpaceOnUse">
<stop stop-color="#1DB779"/>
<stop offset="0.490385" stop-color="#FBE049"/>
<stop offset="1" stop-color="#FBC391"/>
</linearGradient>
<linearGradient id="paint2_linear_999_3395" x1="24.8572" y1="27.4289" x2="30" y2="27.4289" gradientUnits="userSpaceOnUse">
<stop stop-color="#1DB779"/>
<stop offset="0.490385" stop-color="#FBE049"/>
<stop offset="1" stop-color="#FBC391"/>
</linearGradient>
<linearGradient id="paint3_linear_999_3395" x1="0" y1="2.57143" x2="5.14286" y2="2.57143" gradientUnits="userSpaceOnUse">
<stop stop-color="#1DB779"/>
<stop offset="0.490385" stop-color="#FBE049"/>
<stop offset="1" stop-color="#FBC391"/>
</linearGradient>
<linearGradient id="paint4_linear_999_3395" x1="24.8572" y1="2.57143" x2="30" y2="2.57143" gradientUnits="userSpaceOnUse">
<stop stop-color="#1DB779"/>
<stop offset="0.490385" stop-color="#FBE049"/>
<stop offset="1" stop-color="#FBC391"/>
</linearGradient>
</defs>
</svg>
