<svg width="111" height="31" viewBox="0 0 111 31" fill="none" xmlns="http://www.w3.org/2000/svg">
<path d="M100.484 0.246216H105.341V26.9781H110.771V30.9619H100.497V0.246216H100.484Z" fill="white"/>
<path d="M94.2149 12.3753V10.6372H98.8431V30.9113H94.2149V28.6276C92.5239 30.2896 90.2353 31.0001 87.5398 31.0001C81.7038 31.0001 77.4316 26.2805 77.4316 20.5078C77.4316 14.7351 81.7038 10.0155 87.5398 10.0155C90.2353 10.0155 92.5366 10.726 94.2149 12.388V12.3753ZM82.2632 20.3175C82.2632 23.1848 84.3611 26.2424 87.9848 26.2424C91.3796 26.2424 93.5156 23.6923 93.5156 20.3175C93.5156 16.9427 91.3796 14.3926 87.9848 14.3926C84.3611 14.3926 82.2632 17.4375 82.2632 20.3175Z" fill="white"/>
<path d="M0.242188 30.9618V9.79956H14.8386V14.6841H5.13731V30.9618H0.242188Z" fill="white"/>
<path d="M24.9464 26.5213C25.9509 26.5213 26.8663 26.331 27.68 25.9377C28.4938 25.5444 29.1804 24.8973 29.7144 24.0092H34.8129C33.9738 26.1533 32.7277 27.8407 31.0876 29.0714C29.4474 30.3021 27.4512 30.9237 25.1117 30.9237C22.1492 30.9237 19.6571 29.9088 17.6228 27.8915C15.6012 25.8742 14.584 23.3875 14.584 20.4187C14.584 17.4499 15.5884 15.0901 17.5846 12.9714C19.5808 10.8526 22.022 9.79956 24.9083 9.79956C27.0062 9.79956 28.8371 10.307 30.4391 11.3093C32.0284 12.3116 33.2745 13.6438 34.1645 15.3185C35.0672 16.9805 35.5122 18.8328 35.5122 20.8755C35.5122 21.2053 35.4995 21.5225 35.4741 21.8524H19.4028C19.5935 23.4002 20.1911 24.5674 21.1956 25.3541C22.2 26.1407 23.4461 26.534 24.9464 26.534V26.5213ZM24.9083 14.1132C23.6622 14.1132 22.5433 14.4684 21.5643 15.1916C20.5853 15.9148 19.9241 16.8917 19.5681 18.135H30.4518C29.5872 15.4454 27.7309 14.1132 24.9083 14.1132Z" fill="white"/>
<path d="M35.2715 9.79956H40.7769L45.0617 26.8892H46.5239L50.9232 9.79956H56.3905L49.6263 30.9618H41.8831L35.2715 9.79956Z" fill="white"/>
<path d="M65.8116 26.5213C66.8161 26.5213 67.7315 26.331 68.5453 25.9377C69.359 25.5444 70.0456 24.8973 70.5796 24.0092H75.6782C74.839 26.1533 73.593 27.8407 71.9528 29.0714C70.3126 30.3021 68.3164 30.9237 65.9769 30.9237C63.0144 30.9237 60.5224 29.9088 58.488 27.8915C56.4664 25.8742 55.4492 23.3875 55.4492 20.4187C55.4492 17.4499 56.4537 15.0901 58.4499 12.9714C60.4461 10.8526 62.8873 9.79956 65.7735 9.79956C67.8714 9.79956 69.7023 10.307 71.3043 11.3093C72.8937 12.3116 74.1397 13.6438 75.0297 15.3185C75.9325 16.9805 76.3775 18.8328 76.3775 20.8755C76.3775 21.2053 76.3648 21.5225 76.3393 21.8524H60.2681C60.4588 23.4002 61.0564 24.5674 62.0608 25.3541C63.0653 26.1407 64.3113 26.534 65.8116 26.534V26.5213ZM65.7735 14.1132C64.5275 14.1132 63.4086 14.4684 62.4295 15.1916C61.4505 15.9148 60.7894 16.8917 60.4334 18.135H71.3171C70.4525 15.4454 68.5961 14.1132 65.7735 14.1132Z" fill="white"/>
</svg>
