<svg width="13" height="12" viewBox="0 0 13 12" fill="none" xmlns="http://www.w3.org/2000/svg">
<path d="M11.9997 8.48692V9.99232C12.0003 10.1321 11.9687 10.2704 11.907 10.3985C11.8453 10.5265 11.7548 10.6414 11.6413 10.7359C11.5278 10.8304 11.3938 10.9023 11.2479 10.9471C11.102 10.9919 10.9474 11.0085 10.794 10.9959C9.09204 10.8281 7.45724 10.3005 6.0209 9.4554C4.68457 8.68496 3.55159 7.65703 2.70244 6.44459C1.76772 5.13549 1.18603 3.64504 1.00449 2.09397C0.990668 1.95521 1.00884 1.81536 1.05786 1.68331C1.10688 1.55127 1.18566 1.42994 1.28919 1.32703C1.39273 1.22413 1.51874 1.14191 1.65922 1.08562C1.79969 1.02932 1.95155 1.00018 2.10511 1.00005H3.76434C4.03276 0.997652 4.29297 1.08389 4.49649 1.24269C4.7 1.40148 4.83293 1.622 4.8705 1.86315C4.94053 2.34491 5.07041 2.81794 5.25765 3.27321C5.33206 3.45281 5.34817 3.64801 5.30406 3.83567C5.25995 4.02332 5.15747 4.19557 5.00877 4.33201L4.30636 4.96929C5.09369 6.22558 6.24017 7.26576 7.62482 7.9801L8.32723 7.34281C8.4776 7.2079 8.66746 7.11492 8.87429 7.0749C9.08112 7.03488 9.29626 7.04949 9.49422 7.117C9.99601 7.28689 10.5174 7.40473 11.0484 7.46826C11.317 7.50265 11.5624 7.62543 11.7378 7.81325C11.9132 8.00107 12.0064 8.24083 11.9997 8.48692Z" stroke="#F8F8F8" stroke-linecap="round" stroke-linejoin="round"/>
</svg>
