<svg width="53" height="66" viewBox="0 0 53 66" fill="none" xmlns="http://www.w3.org/2000/svg">
<path d="M4.70096 59.5634C6.87763 59.5634 8.64216 57.7989 8.64216 55.6222C8.64216 53.4456 6.87763 51.681 4.70096 51.681C2.5243 51.681 0.759766 53.4456 0.759766 55.6222C0.759766 57.7989 2.5243 59.5634 4.70096 59.5634Z" fill="#FBE049"/>
<path d="M4.70051 60.3234C2.1092 60.3234 0 58.2142 0 55.6229C0 53.0316 2.1092 50.9224 4.70051 50.9224C7.29182 50.9224 9.40102 53.0316 9.40102 55.6229C9.40102 58.2142 7.29182 60.3234 4.70051 60.3234ZM4.70051 52.4289C2.94083 52.4289 1.50657 53.8632 1.50657 55.6229C1.50657 57.3826 2.94083 58.8168 4.70051 58.8168C6.46019 58.8168 7.89445 57.3826 7.89445 55.6229C7.89445 53.8632 6.46019 52.4289 4.70051 52.4289Z" fill="#1E1E1E"/>
<path d="M33.652 0.759155H14.4522C9.20931 0.759155 4.9668 5.00167 4.9668 10.2445V55.7551C4.9668 60.998 9.20931 65.2405 14.4522 65.2405H41.8357C47.0786 65.2405 51.3211 60.998 51.3211 55.7551V18.4283L33.652 0.759155Z" fill="white"/>
<path d="M41.847 66H14.4635C8.81079 66 4.21875 61.408 4.21875 55.7553V10.2447C4.21875 4.59204 8.81079 0 14.4635 0H33.6632C33.8681 0 34.0489 0.0843682 34.1936 0.216947L51.8747 17.8981C52.0193 18.0427 52.0917 18.2356 52.0917 18.4284V55.7553C52.0917 61.408 47.4996 66 41.847 66ZM14.4635 1.50657C9.64242 1.50657 5.72532 5.42367 5.72532 10.2447V55.7553C5.72532 60.5763 9.64242 64.4934 14.4635 64.4934H41.847C46.668 64.4934 50.5851 60.5763 50.5851 55.7553V18.7418L33.3499 1.50657H14.4635Z" fill="#1E1E1E"/>
<path d="M33.6504 0.759155L51.3315 18.4403H37.4229C35.3378 18.4403 33.6504 16.7529 33.6504 14.6678V0.759155Z" fill="#E3E3E2"/>
<path d="M51.3308 19.188H37.4221C34.9272 19.188 32.9023 17.1631 32.9023 14.6682V0.759553C32.9023 0.458238 33.0831 0.181029 33.3724 0.0605028C33.6496 -0.0600231 33.975 0.0122924 34.192 0.229239L51.837 17.8742C51.9937 18.0068 52.0901 18.2117 52.0901 18.4407C52.0901 18.8625 51.7526 19.2 51.3308 19.2V19.188ZM34.4089 2.56744V14.6562C34.4089 16.3195 35.7588 17.6693 37.4221 17.6693H49.5108L34.4089 2.56744Z" fill="#1E1E1E"/>
<path d="M4.57623 35.2002C2.45675 35.2002 0.732422 36.9126 0.732422 39.0175V55.0002H0.804269C1.15153 53.2402 2.70821 51.9083 4.57623 51.9083H39.8171C41.721 51.9083 43.2658 50.3742 43.2658 48.4834V38.637C43.2658 36.7461 41.721 35.2121 39.8171 35.2121H4.57623V35.2002Z" fill="#FBE049" stroke="#1E1E1E" stroke-miterlimit="10"/>
<path d="M10.716 44.446V46H9.162V44.446H10.716ZM13.0025 36.032H17.3845C19.6105 36.032 20.7305 36.956 20.7305 38.79C20.7305 39.378 20.5625 39.882 20.2545 40.33C19.9465 40.778 19.5265 41.072 19.0225 41.212C19.3585 41.296 19.6245 41.394 19.8345 41.534C20.0305 41.674 20.1845 41.87 20.2825 42.122C20.3665 42.374 20.4365 42.598 20.4645 42.794C20.4925 42.99 20.5065 43.284 20.5345 43.662C20.5345 43.704 20.5345 43.802 20.5485 43.942C20.5485 44.082 20.5625 44.18 20.5625 44.236C20.5625 44.292 20.5625 44.376 20.5765 44.502C20.5905 44.642 20.6045 44.74 20.6185 44.796C20.6185 44.866 20.6325 44.95 20.6605 45.062C20.6745 45.174 20.7025 45.272 20.7305 45.342C20.7585 45.412 20.7865 45.496 20.8285 45.58C20.8565 45.664 20.8985 45.748 20.9545 45.818C20.9965 45.888 21.0525 45.944 21.1085 46H19.5965C19.5265 45.916 19.4705 45.79 19.4285 45.65C19.3865 45.51 19.3585 45.356 19.3445 45.16C19.3165 44.964 19.3025 44.81 19.3025 44.698C19.2885 44.586 19.2745 44.404 19.2745 44.18C19.2605 43.956 19.2605 43.83 19.2605 43.802C19.2045 42.962 19.0365 42.388 18.7285 42.108C18.4205 41.828 17.8325 41.688 16.9365 41.688H14.3185V46H13.0025V36.032ZM14.3185 37.152V40.638H16.7965C17.1045 40.638 17.3565 40.638 17.5665 40.61C17.7765 40.596 18.0145 40.554 18.2665 40.484C18.5185 40.428 18.7145 40.33 18.8685 40.204C19.0225 40.092 19.1485 39.91 19.2605 39.686C19.3585 39.462 19.4145 39.196 19.4145 38.874C19.4145 38.202 19.2045 37.754 18.7985 37.516C18.3925 37.278 17.8465 37.152 17.1465 37.152H14.3185ZM21.2064 36.032H22.6624L25.5324 44.712L28.4304 36.032H29.8164L26.2604 46H24.7484L21.2064 36.032ZM37.815 36.032V37.18H34.469V46H33.153V37.18H29.807V36.032H37.815Z" fill="#1E1E1E"/>
</svg>
