<svg width="49" height="64" viewBox="0 0 49 64" fill="none" xmlns="http://www.w3.org/2000/svg">
<path d="M48.8391 17.819C48.6379 17.2877 48.1954 16.9199 47.7931 16.5113C46.546 15.2443 45.2586 13.9366 44.0115 12.6696C42.2011 10.8306 40.3908 8.99152 38.5805 7.15245C36.5287 5.06818 34.5172 2.49349 32.2241 0.695292C30.7356 -0.449015 27.7586 0.164007 26.069 0.164007C22.2471 0.164007 18.4655 0.164007 14.6437 0.164007C10.7414 0.164007 7.16092 1.30831 4.78736 4.70037C3.13793 7.07072 2.89655 9.72715 2.89655 12.5062C2.89655 15.4487 2.89655 18.3912 2.89655 21.3337C2.89655 25.584 2.89655 29.8751 2.89655 34.1254C1.24713 34.4115 0 35.8419 0 37.5583V46.1406C0 47.8571 1.2069 49.2875 2.81609 49.5736C2.77586 54.3551 3.13793 59.1776 7.52299 62.2018C10.1782 64 13.0345 64 16.0517 64C19.8736 64 23.6954 64 27.5172 64C30.8563 64 34.1954 64 37.5345 64C41.2356 64 44.6552 62.8148 46.9483 59.7088C48.7586 57.2568 49 54.4777 49 51.5761C49 48.3066 49 45.0372 49 41.7677C49 34.4523 49 27.137 49 19.8216C49 19.372 48.9598 18.9225 49 18.5138C49 18.1868 48.9598 17.9825 48.8391 17.819ZM32.7069 9.64541C32.7069 8.46023 32.7069 7.23419 32.7069 6.04901C36.2069 9.60454 39.7069 13.1601 43.2069 16.7156C42.0402 16.7156 40.8333 16.7156 39.6667 16.7156C38.0977 16.7156 34.5172 17.4103 33.2701 16.1434C32.023 14.8765 32.7069 11.2393 32.7069 9.64541ZM45.5805 52.1891C45.5805 56.562 43.2471 60.3627 38.5402 60.5262C31.6609 60.5262 24.8218 60.5262 17.9425 60.5262C14.8046 60.5262 11.2644 61.0166 8.68966 58.7689C6.15517 56.562 6.23563 53.5786 6.23563 50.5544C6.23563 50.2274 6.23563 49.9005 6.23563 49.6144H26.7126C28.6034 49.6144 30.1322 48.0614 30.1322 46.1406V37.5583C30.1322 35.6375 28.6034 34.0845 26.7126 34.0845H6.27586C6.27586 31.469 6.27586 28.8534 6.27586 26.2379C6.27586 22.4371 6.27586 18.6364 6.27586 14.8357C6.27586 12.6288 5.99425 10.0541 6.83908 7.96982C9.01149 2.82043 14.5632 3.6378 19.069 3.6378C22.4885 3.6378 25.908 3.6378 29.2874 3.6378C29.2874 6.00815 29.2874 8.3785 29.2874 10.7488C29.2874 13.4053 28.7644 16.593 30.8161 18.6364C32.8276 20.6798 35.9655 20.1894 38.5805 20.1894C40.9138 20.1894 43.2471 20.1894 45.5805 20.1894C45.5805 30.856 45.5805 41.5225 45.5805 52.1891Z" fill="url(#paint0_linear_0_1)"/>
<path d="M5.48793 46.0923C5.25355 46.0923 5.05232 46.0095 4.88423 45.8438C4.71851 45.6757 4.63565 45.4744 4.63565 45.2401C4.63565 45.008 4.71851 44.8092 4.88423 44.6435C5.05232 44.4777 5.25355 44.3949 5.48793 44.3949C5.7152 44.3949 5.91406 44.4777 6.08452 44.6435C6.25497 44.8092 6.3402 45.008 6.3402 45.2401C6.3402 45.3963 6.29995 45.5395 6.21946 45.6697C6.14134 45.7976 6.03835 45.9006 5.91051 45.9787C5.78267 46.0545 5.64181 46.0923 5.48793 46.0923ZM7.61062 46V38.7273H10.4799C11.0292 38.7273 11.4979 38.8255 11.8862 39.022C12.2768 39.2161 12.5739 39.492 12.7775 39.8494C12.9835 40.2045 13.0865 40.6224 13.0865 41.103C13.0865 41.5859 12.9823 42.0014 12.774 42.3494C12.5656 42.6951 12.2638 42.9602 11.8684 43.1449C11.4754 43.3295 10.9996 43.4219 10.4409 43.4219H8.51971V42.1861H10.1923C10.4859 42.1861 10.7297 42.1458 10.9238 42.0653C11.118 41.9848 11.2624 41.8641 11.3571 41.7031C11.4541 41.5421 11.5027 41.3421 11.5027 41.103C11.5027 40.8615 11.4541 40.6579 11.3571 40.4922C11.2624 40.3265 11.1168 40.201 10.9203 40.1158C10.7261 40.0282 10.4811 39.9844 10.1852 39.9844H9.14826V46H7.61062ZM11.5382 42.6903L13.3457 46H11.6483L9.87979 42.6903H11.5382ZM15.2917 38.7273L17.0495 44.2528H17.117L18.8784 38.7273H20.5829L18.0758 46H16.0943L13.5836 38.7273H15.2917ZM21.1813 39.995V38.7273H27.1543V39.995H24.9277V46H23.4078V39.995H21.1813Z" fill="#1E1E1E"/>
<defs>
<linearGradient id="paint0_linear_0_1" x1="0" y1="31.9873" x2="48.9994" y2="31.9873" gradientUnits="userSpaceOnUse">
<stop stop-color="#118154"/>
<stop offset="0.5769" stop-color="#D5BE3F"/>
<stop offset="1" stop-color="#DE9452"/>
</linearGradient>
</defs>
</svg>
