<svg width="49" height="64" viewBox="0 0 49 64" fill="none" xmlns="http://www.w3.org/2000/svg">
<path d="M48.8391 17.819C48.6379 17.2877 48.1954 16.9199 47.7931 16.5113C46.546 15.2443 45.2586 13.9366 44.0115 12.6696C42.2011 10.8306 40.3908 8.99152 38.5805 7.15245C36.5287 5.06818 34.5172 2.49349 32.2241 0.695292C30.7356 -0.449015 27.7586 0.164007 26.069 0.164007C22.2471 0.164007 18.4655 0.164007 14.6437 0.164007C10.7414 0.164007 7.16092 1.30831 4.78736 4.70037C3.13793 7.07072 2.89655 9.72715 2.89655 12.5062C2.89655 15.4487 2.89655 18.3912 2.89655 21.3337C2.89655 25.584 2.89655 29.8751 2.89655 34.1254C1.24713 34.4115 0 35.8419 0 37.5583V46.1406C0 47.8571 1.2069 49.2875 2.81609 49.5736C2.77586 54.3551 3.13793 59.1776 7.52299 62.2018C10.1782 64 13.0345 64 16.0517 64C19.8736 64 23.6954 64 27.5172 64C30.8563 64 34.1954 64 37.5345 64C41.2356 64 44.6552 62.8148 46.9483 59.7088C48.7586 57.2568 49 54.4777 49 51.5761C49 48.3066 49 45.0372 49 41.7677C49 34.4523 49 27.137 49 19.8216C49 19.372 48.9598 18.9225 49 18.5138C49 18.1868 48.9598 17.9825 48.8391 17.819ZM32.7069 9.64541C32.7069 8.46023 32.7069 7.23419 32.7069 6.04901C36.2069 9.60454 39.7069 13.1601 43.2069 16.7156C42.0402 16.7156 40.8333 16.7156 39.6667 16.7156C38.0977 16.7156 34.5172 17.4103 33.2701 16.1434C32.023 14.8765 32.7069 11.2393 32.7069 9.64541ZM45.5805 52.1891C45.5805 56.562 43.2471 60.3627 38.5402 60.5262C31.6609 60.5262 24.8218 60.5262 17.9425 60.5262C14.8046 60.5262 11.2644 61.0166 8.68966 58.7689C6.15517 56.562 6.23563 53.5786 6.23563 50.5544C6.23563 50.2274 6.23563 49.9005 6.23563 49.6144H26.7126C28.6034 49.6144 30.1322 48.0614 30.1322 46.1406V37.5583C30.1322 35.6375 28.6034 34.0845 26.7126 34.0845H6.27586C6.27586 31.469 6.27586 28.8534 6.27586 26.2379C6.27586 22.4371 6.27586 18.6364 6.27586 14.8357C6.27586 12.6288 5.99425 10.0541 6.83908 7.96982C9.01149 2.82043 14.5632 3.6378 19.069 3.6378C22.4885 3.6378 25.908 3.6378 29.2874 3.6378C29.2874 6.00815 29.2874 8.3785 29.2874 10.7488C29.2874 13.4053 28.7644 16.593 30.8161 18.6364C32.8276 20.6798 35.9655 20.1894 38.5805 20.1894C40.9138 20.1894 43.2471 20.1894 45.5805 20.1894C45.5805 30.856 45.5805 41.5225 45.5805 52.1891Z" fill="url(#paint0_linear_0_1)"/>
<path d="M5.48793 46.0923C5.25355 46.0923 5.05232 46.0095 4.88423 45.8438C4.71851 45.6757 4.63565 45.4744 4.63565 45.2401C4.63565 45.008 4.71851 44.8092 4.88423 44.6435C5.05232 44.4777 5.25355 44.3949 5.48793 44.3949C5.7152 44.3949 5.91406 44.4777 6.08452 44.6435C6.25497 44.8092 6.3402 45.008 6.3402 45.2401C6.3402 45.3963 6.29995 45.5395 6.21946 45.6697C6.14134 45.7976 6.03835 45.9006 5.91051 45.9787C5.78267 46.0545 5.64181 46.0923 5.48793 46.0923ZM11.5559 40.8189C11.5275 40.5324 11.4056 40.3099 11.1902 40.1513C10.9747 39.9927 10.6824 39.9134 10.313 39.9134C10.0621 39.9134 9.8502 39.9489 9.67738 40.0199C9.50456 40.0885 9.37198 40.1844 9.27965 40.3075C9.18969 40.4306 9.14471 40.5703 9.14471 40.7266C9.13997 40.8568 9.1672 40.9704 9.22638 41.0675C9.28794 41.1645 9.37198 41.2486 9.47852 41.3196C9.58505 41.3883 9.70816 41.4486 9.84783 41.5007C9.98751 41.5504 10.1367 41.593 10.2953 41.6286L10.9487 41.7848C11.2659 41.8558 11.5571 41.9505 11.8223 42.0689C12.0874 42.1873 12.3171 42.3329 12.5112 42.5057C12.7053 42.6785 12.8556 42.8821 12.9622 43.1165C13.0711 43.3509 13.1267 43.6196 13.1291 43.9226C13.1267 44.3677 13.0131 44.7536 12.7882 45.0803C12.5656 45.4046 12.2437 45.6567 11.8223 45.8366C11.4032 46.0142 10.8978 46.103 10.3059 46.103C9.71881 46.103 9.20745 46.013 8.77184 45.8331C8.3386 45.6532 8.00006 45.3868 7.75621 45.0341C7.51474 44.679 7.38808 44.2398 7.37624 43.7166H8.86417C8.88074 43.9605 8.95058 44.1641 9.07369 44.3274C9.19916 44.4884 9.36606 44.6103 9.5744 44.6932C9.7851 44.7737 10.023 44.8139 10.2882 44.8139C10.5486 44.8139 10.7747 44.776 10.9664 44.7003C11.1606 44.6245 11.3109 44.5192 11.4174 44.3842C11.524 44.2493 11.5772 44.0942 11.5772 43.919C11.5772 43.7557 11.5287 43.6184 11.4316 43.5071C11.3369 43.3958 11.1973 43.3011 11.0126 43.223C10.8303 43.1449 10.6066 43.0739 10.3414 43.0099L9.54954 42.8111C8.93638 42.6619 8.45224 42.4287 8.09712 42.1115C7.74201 41.7943 7.56564 41.367 7.568 40.8295C7.56564 40.3892 7.68282 40.0045 7.91957 39.6754C8.15868 39.3464 8.48656 39.0895 8.90323 38.9048C9.3199 38.7202 9.79338 38.6278 10.3237 38.6278C10.8635 38.6278 11.3346 38.7202 11.737 38.9048C12.1419 39.0895 12.4567 39.3464 12.6816 39.6754C12.9065 40.0045 13.0225 40.3857 13.0297 40.8189H11.5559ZM14.1634 46V38.7273H15.701V41.9339H15.7969L18.4141 38.7273H20.2571L17.5582 41.9837L20.2891 46H18.4496L16.4574 43.0099L15.701 43.9332V46H14.1634ZM21.0579 46V38.7273H23.9272C24.4788 38.7273 24.9487 38.8326 25.337 39.0433C25.7253 39.2517 26.0212 39.5417 26.2248 39.9134C26.4308 40.2827 26.5337 40.7088 26.5337 41.1918C26.5337 41.6747 26.4296 42.1009 26.2212 42.4702C26.0129 42.8395 25.7111 43.1271 25.3157 43.3331C24.9227 43.5391 24.4469 43.642 23.8881 43.642H22.0593V42.4098H23.6396C23.9355 42.4098 24.1793 42.3589 24.3711 42.2571C24.5652 42.1529 24.7096 42.0097 24.8043 41.8274C24.9014 41.6428 24.9499 41.4309 24.9499 41.1918C24.9499 40.9503 24.9014 40.7396 24.8043 40.5597C24.7096 40.3774 24.5652 40.2365 24.3711 40.1371C24.177 40.0353 23.9308 39.9844 23.6325 39.9844H22.5955V46H21.0579Z" fill="#1E1E1E"/>
<defs>
<linearGradient id="paint0_linear_0_1" x1="0" y1="31.9873" x2="48.9994" y2="31.9873" gradientUnits="userSpaceOnUse">
<stop stop-color="#118154"/>
<stop offset="0.5769" stop-color="#D5BE3F"/>
<stop offset="1" stop-color="#DE9452"/>
</linearGradient>
</defs>
</svg>
