<svg width="53" height="66" viewBox="0 0 53 66" fill="none" xmlns="http://www.w3.org/2000/svg">
<path d="M4.70096 59.5634C6.87763 59.5634 8.64216 57.7989 8.64216 55.6222C8.64216 53.4456 6.87763 51.681 4.70096 51.681C2.5243 51.681 0.759766 53.4456 0.759766 55.6222C0.759766 57.7989 2.5243 59.5634 4.70096 59.5634Z" fill="#FBC391"/>
<path d="M4.70051 60.3234C2.1092 60.3234 0 58.2142 0 55.6229C0 53.0316 2.1092 50.9224 4.70051 50.9224C7.29182 50.9224 9.40102 53.0316 9.40102 55.6229C9.40102 58.2142 7.29182 60.3234 4.70051 60.3234ZM4.70051 52.4289C2.94083 52.4289 1.50657 53.8632 1.50657 55.6229C1.50657 57.3826 2.94083 58.8168 4.70051 58.8168C6.46019 58.8168 7.89445 57.3826 7.89445 55.6229C7.89445 53.8632 6.46019 52.4289 4.70051 52.4289Z" fill="#1E1E1E"/>
<path d="M33.652 0.759155H14.4522C9.20931 0.759155 4.9668 5.00167 4.9668 10.2445V55.7551C4.9668 60.998 9.20931 65.2405 14.4522 65.2405H41.8357C47.0786 65.2405 51.3211 60.998 51.3211 55.7551V18.4283L33.652 0.759155Z" fill="white"/>
<path d="M41.847 66H14.4635C8.81079 66 4.21875 61.408 4.21875 55.7553V10.2447C4.21875 4.59204 8.81079 0 14.4635 0H33.6632C33.8681 0 34.0489 0.0843682 34.1936 0.216947L51.8747 17.8981C52.0193 18.0427 52.0917 18.2356 52.0917 18.4284V55.7553C52.0917 61.408 47.4996 66 41.847 66ZM14.4635 1.50657C9.64242 1.50657 5.72532 5.42367 5.72532 10.2447V55.7553C5.72532 60.5763 9.64242 64.4934 14.4635 64.4934H41.847C46.668 64.4934 50.5851 60.5763 50.5851 55.7553V18.7418L33.3499 1.50657H14.4635Z" fill="#1E1E1E"/>
<path d="M33.6504 0.759155L51.3315 18.4403H37.4229C35.3378 18.4403 33.6504 16.7529 33.6504 14.6678V0.759155Z" fill="#E3E3E2"/>
<path d="M51.3308 19.188H37.4221C34.9272 19.188 32.9023 17.1631 32.9023 14.6682V0.759553C32.9023 0.458238 33.0831 0.181029 33.3724 0.0605028C33.6496 -0.0600231 33.975 0.0122924 34.192 0.229239L51.837 17.8742C51.9937 18.0068 52.0901 18.2117 52.0901 18.4407C52.0901 18.8625 51.7526 19.2 51.3308 19.2V19.188ZM34.4089 2.56744V14.6562C34.4089 16.3195 35.7588 17.6693 37.4221 17.6693H49.5108L34.4089 2.56744Z" fill="#1E1E1E"/>
<path d="M4.57623 35.2002C2.45675 35.2002 0.732422 36.9126 0.732422 39.0175V55.0002H0.804269C1.15153 53.2402 2.70821 51.9083 4.57623 51.9083H39.8171C41.721 51.9083 43.2658 50.3742 43.2658 48.4834V38.637C43.2658 36.7461 41.721 35.2121 39.8171 35.2121H4.57623V35.2002Z" fill="#FBC391" stroke="#1E1E1E" stroke-miterlimit="10"/>
<path d="M9.716 44.446V46H8.162V44.446H9.716ZM19.0585 38.958L17.7705 38.972C17.6305 37.614 16.8045 36.942 15.2925 36.942C14.5785 36.942 14.0185 37.082 13.6265 37.376C13.2345 37.656 13.0385 38.062 13.0385 38.594C13.0385 38.776 13.0665 38.944 13.1225 39.084C13.1785 39.224 13.2765 39.336 13.4165 39.448C13.5565 39.56 13.6825 39.644 13.7945 39.728C13.9205 39.798 14.1165 39.868 14.3685 39.938C14.6345 40.022 14.8445 40.078 14.9985 40.106C15.1665 40.134 15.4045 40.19 15.7405 40.26C16.1605 40.344 16.4965 40.428 16.7625 40.498C17.0425 40.568 17.3645 40.68 17.7285 40.834C18.1065 41.002 18.4005 41.17 18.6245 41.366C18.8485 41.562 19.0305 41.814 19.1985 42.122C19.3665 42.444 19.4365 42.808 19.4365 43.2C19.4365 43.9 19.2405 44.488 18.8485 44.964C18.4565 45.44 17.9805 45.762 17.4205 45.944C16.8605 46.14 16.2445 46.224 15.5585 46.224C14.3125 46.224 13.3185 45.93 12.5625 45.342C11.8065 44.754 11.4285 43.872 11.4285 42.71H12.7025C12.7305 43.564 13.0245 44.18 13.5565 44.572C14.1025 44.964 14.8025 45.16 15.6705 45.16C16.3565 45.16 16.9445 45.006 17.4345 44.726C17.9105 44.446 18.1625 43.984 18.1625 43.34C18.1625 43.032 18.0925 42.78 17.9665 42.57C17.8265 42.36 17.6305 42.192 17.3505 42.052C17.0705 41.912 16.7905 41.814 16.5105 41.73C16.2305 41.646 15.8525 41.548 15.4045 41.45C15.3345 41.436 15.2925 41.422 15.2645 41.408C14.2285 41.184 13.5565 40.988 13.2485 40.848C12.2685 40.428 11.7925 39.714 11.7925 38.678C11.7925 37.726 12.1425 37.026 12.8425 36.55C13.5425 36.074 14.3965 35.836 15.3905 35.836C16.4825 35.836 17.3645 36.102 18.0085 36.62C18.6665 37.152 19.0165 37.922 19.0585 38.958ZM29.1726 36.032L24.9726 40.036L29.3406 46H27.6606L24.0486 40.932L22.3966 42.5V46H21.0806V36.032H22.3966V40.974L27.4506 36.032H29.1726ZM30.4745 36.032H34.5625C35.5845 36.032 36.3965 36.27 36.9985 36.732C37.5865 37.194 37.8945 37.922 37.8945 38.902C37.8945 40.918 36.7605 41.912 34.4925 41.912H31.7905V46H30.4745V36.032ZM31.7765 37.166V40.806H34.3105C35.0245 40.806 35.5845 40.68 35.9765 40.414C36.3685 40.148 36.5645 39.672 36.5645 38.986C36.5645 38.608 36.5085 38.286 36.3825 38.034C36.2565 37.782 36.0745 37.6 35.8225 37.474C35.5845 37.362 35.3325 37.278 35.0665 37.236C34.8145 37.194 34.4925 37.166 34.1285 37.166H31.7765Z" fill="#1E1E1E"/>
</svg>
