<svg width="46" height="47" viewBox="0 0 46 47" fill="none" xmlns="http://www.w3.org/2000/svg">
<path d="M38.6357 33.5362C38.5215 33.4221 36.7765 34.0581 36.6623 34.2212C36.4666 34.4984 36.4992 35.477 36.2057 35.9988C35.8306 36.7001 34.7216 37.0915 34.5911 37.3035C34.4606 37.4992 34.7216 37.907 34.689 38.2331C34.5748 39.2117 33.9062 40.3043 32.9276 40.6142C32.5036 40.761 31.6392 40.6957 31.5903 40.7447C31.5251 40.8099 31.6392 41.821 31.0684 42.5549C30.0573 43.8433 28.8831 43.2725 28.508 43.5171C28.4427 43.5661 28.247 44.4957 28.1166 44.7729C27.5947 45.8819 26.2248 46.4853 25.0342 46.1755C24.6918 46.0776 24.072 45.5394 23.7785 45.6047C23.6154 45.6373 23.1587 46.2244 22.6858 46.4038C21.691 46.7789 20.5494 46.6973 19.7339 45.9961C19.3751 45.6862 19.0816 44.936 19.0163 44.9034C18.9348 44.8545 17.7443 45.1806 17.0919 45.0338C16.3091 44.8545 15.6568 43.7618 15.4774 43.7128C15.249 43.6476 14.1727 43.9738 13.4877 43.827C12.6396 43.6476 11.759 42.6528 11.547 41.821C11.4817 41.5438 11.498 40.8262 11.4654 40.7936C11.3839 40.6957 10.1281 40.761 9.3453 39.7335C7.68181 37.5808 9.7367 36.6838 9.7204 35.3954C9.7204 34.8899 9.31268 33.471 8.90496 33.1448C8.70926 32.9817 7.48611 32.4436 7.37195 32.5414C7.12732 32.7208 7.17624 33.944 5.87155 34.2212C5.08873 34.3843 2.2021 33.259 1.61499 32.7208C1.15834 32.2968 0.946331 31.5303 1.01157 30.9105C2.83814 26.8823 4.40377 22.5116 6.36081 18.5649C7.02946 17.2113 7.40456 16.0696 9.26375 16.4774C9.7204 16.5752 12.2156 17.7331 12.5092 18.043C13.7976 19.364 12.4439 20.7339 12.5418 21.109C12.5907 21.3047 14.4336 22.1528 14.7108 22.2017C16.7494 22.6257 18.8369 21.0112 21.5931 21.8429C21.9682 21.9571 22.5553 22.4137 22.751 22.4137C22.8815 22.4137 24.3493 21.5983 24.9201 21.5004C25.5561 21.37 26.2411 21.3373 26.8771 21.3863C29.4213 21.582 31.5251 23.9304 33.9225 21.9082C32.7156 19.1031 34.2812 18.3529 36.6623 17.6027C38.1301 17.146 38.8477 16.9829 39.8099 18.4181C41.0004 22.6584 43.7729 27.2574 44.833 31.4324C45.1102 32.5088 45.1428 33.3405 44.1317 34.0092C43.7566 34.2538 41.3592 35.1997 40.9189 35.265C40.1361 35.3791 39.2554 35.0366 38.8314 34.3354C38.6846 34.0744 38.6683 33.6178 38.6357 33.5852V33.5362ZM8.52986 17.7658C7.81228 17.9451 3.24585 29.6385 2.43042 31.1062C2.36519 31.3183 2.43042 31.4161 2.5772 31.5792C2.67505 31.6934 5.12135 32.8187 5.28444 32.8513C5.72477 32.9165 5.85524 32.6393 6.05094 32.3131C7.8449 27.9424 10.0303 23.6695 11.6611 19.2498C11.5959 19.0052 8.80711 17.7168 8.52986 17.7821V17.7658ZM38.4237 18.8095C38.0975 18.5486 37.8529 18.6627 37.5267 18.7606C37.0374 18.891 34.8847 19.6902 34.901 20.1957C36.7276 24.6969 38.2932 29.3286 40.2665 33.7319C40.3481 33.8298 40.4459 33.8624 40.5764 33.8461C40.9026 33.8461 43.8218 32.7697 43.5935 32.1174L38.4237 18.7932V18.8095ZM21.4626 23.2455C18.8859 22.4626 16.3743 24.1751 13.8628 23.3759C13.3735 23.2128 12.2482 22.3648 11.8405 22.6257C11.4328 22.8867 8.62771 30.1277 8.13845 31.1389C9.39422 31.7749 10.6337 32.0685 10.8131 33.7156C12.2482 32.7208 13.928 32.7371 15.0207 34.2375C15.2164 34.5148 15.249 35.0203 15.461 35.1671C15.7546 35.3791 16.7984 35.4117 17.4018 35.8031C18.0052 36.1945 18.3314 37.0752 18.3966 37.1241C18.576 37.2383 19.2936 37.1241 19.6524 37.1731C20.5004 37.3198 21.1202 37.7928 21.642 38.4451C21.7888 38.6245 21.7725 38.967 21.8377 39.0159C21.903 39.0812 23.2566 39.0159 23.7948 39.2117C24.3982 39.4237 24.7081 39.9455 25.181 40.2228C25.7518 40.5653 28.3775 42.0983 28.7852 42.1309C29.9921 42.2451 30.7097 40.8425 29.829 39.9619L24.4308 36.9447C23.9089 36.0641 24.5124 35.6237 25.4256 35.8684C26.7303 36.2109 29.4702 38.2821 30.9217 38.967C31.1663 39.0812 31.5088 39.3258 31.7371 39.3584C32.7809 39.5378 33.5474 38.3473 32.9929 37.4014C32.5525 36.6675 28.7689 35.0856 27.9046 34.4169C27.3174 33.895 27.7578 32.8839 28.5243 33.0959C29.7637 33.5852 32.6341 35.8521 33.7757 35.9499C35.1293 36.0641 35.537 34.368 34.4117 33.5689C32.4058 32.1174 29.4865 30.9921 27.3501 29.6385C24.3656 29.035 21.6094 32.2315 18.1683 31.2693C17.1245 30.9758 14.8087 29.4591 15.3632 28.2359C15.6404 27.6162 20.9897 24.7132 21.4626 23.2455ZM34.689 23.2292C34.5585 23.115 33.2701 23.8978 32.9603 23.9957C30.465 24.8437 28.4264 22.4953 25.8497 22.7236C23.2729 22.9519 21.903 25.0394 20.1579 26.4746C19.4077 27.0943 17.6138 28.0891 17.1572 28.6273C17.0593 28.7415 16.8799 28.9046 16.9941 29.0514C17.043 29.1166 18.1031 29.72 18.2498 29.7852C21.0223 30.8942 24.1862 27.7303 27.0076 28.0728C27.7741 28.1707 28.6221 28.6763 29.3234 29.035C31.5577 30.1603 33.8246 31.6607 35.961 32.9817L37.9833 32.0521L34.7053 23.2128L34.689 23.2292ZM13.6671 34.792C13.1941 34.2864 12.5744 34.3027 12.0036 34.6615C11.5959 34.9225 10.177 37.4666 10.1444 37.9559C10.0466 38.967 11.5143 39.9292 12.4276 38.8529C12.6233 38.6245 14.0096 36.1782 14.0422 35.9825C14.1074 35.6237 13.9117 35.0529 13.6671 34.792ZM15.3958 36.8306C15.037 36.9447 13.0147 40.4511 12.9332 40.9241C12.7212 42.2777 14.2705 43.0768 15.2653 41.87C15.5426 41.5438 17.043 38.755 17.1245 38.3962C17.3529 37.2383 16.5211 36.4881 15.3958 36.8306ZM19.1794 38.5593C18.8696 38.5919 18.576 38.7387 18.3803 38.9833C18.2335 39.1464 16.7005 42.082 16.6679 42.2777C16.4559 43.5008 18.0867 44.2837 19.049 43.0931C19.2936 42.7833 20.5004 40.4674 20.5657 40.1249C20.7451 39.2443 20.0927 38.4615 19.1794 38.5593ZM22.4412 40.4511C21.7888 40.5816 20.3863 43.2073 20.2884 43.8107C20.0764 45.0828 21.7073 45.7514 22.6695 44.6261C22.8815 44.3815 23.9579 42.294 24.0068 42.0004C24.2025 41.0382 23.4034 40.2391 22.4412 40.4348V40.4511ZM26.7303 42.7017C26.6651 42.6202 25.4583 41.9189 25.4093 41.9678C25.5235 42.6202 24.3003 43.8759 24.6265 44.3815C24.7244 44.5283 25.4746 44.8708 25.6866 44.8871C26.763 44.9523 27.399 43.5171 26.7466 42.7017H26.7303Z" fill="url(#paint0_linear_1008_3424)" stroke="url(#paint1_linear_1008_3424)" stroke-width="0.2" stroke-miterlimit="10"/>
<path d="M20.7793 1.15936C28.4105 0.126688 33.9021 7.94292 29.9973 14.6731C26.8236 20.1213 19.1568 20.5664 15.1986 15.6523C10.9907 10.4178 14.1288 2.06739 20.7793 1.15936ZM21.332 2.67275C11.9179 3.74103 12.9342 18.6613 23.5073 17.415C32.4935 16.3645 31.2989 1.53325 21.332 2.67275Z" fill="url(#paint2_linear_1008_3424)" stroke="url(#paint3_linear_1008_3424)" stroke-width="0.2" stroke-miterlimit="10"/>
<path d="M23.625 5.38437C23.625 5.38437 24.8383 5.78079 25.3347 6.26731C25.8679 6.80788 26.6216 8.08724 25.4266 8.26743C24.5258 8.39356 24.581 7.65478 23.9743 7.22232C22.0255 5.87089 19.9113 8.10526 21.9152 9.06027C22.577 9.38461 23.5146 9.34857 24.25 9.61886C26.0333 10.2856 27.0261 12.4298 25.6289 13.9254C25.1325 14.448 23.7169 14.8444 23.6617 14.9345C23.4227 15.2769 23.772 16.1958 22.5586 16.0517C21.7865 15.9616 22.2277 15.2228 22.0439 14.9345C22.0071 14.8804 21.0327 14.6282 20.7202 14.43C19.8561 13.8894 18.3853 11.655 20.0399 11.673C20.9776 11.673 20.7753 12.574 21.382 13.0245C22.3932 13.7633 25.0773 13.4209 24.6913 12.0695C24.2316 10.4477 20.7753 11.2946 19.8377 9.22244C19.2678 7.99714 19.6171 6.69977 20.7202 5.90693C21.0327 5.67268 21.6946 5.52853 21.8784 5.33032C22.2093 4.96993 22.0623 3.79869 23.1102 4.12304C23.6801 4.30323 23.5146 5.2222 23.6617 5.40239L23.625 5.38437Z" fill="url(#paint4_linear_1008_3424)" stroke="url(#paint5_linear_1008_3424)" stroke-width="0.2" stroke-miterlimit="10"/>
<defs>
<linearGradient id="paint0_linear_1008_3424" x1="1" y1="31.5091" x2="45" y2="31.5091" gradientUnits="userSpaceOnUse">
<stop stop-color="#1DB779"/>
<stop offset="0.490385" stop-color="#FBE049"/>
<stop offset="1" stop-color="#FBC391"/>
</linearGradient>
<linearGradient id="paint1_linear_1008_3424" x1="1" y1="31.5091" x2="45" y2="31.5091" gradientUnits="userSpaceOnUse">
<stop stop-color="#1DB779"/>
<stop offset="0.490385" stop-color="#FBE049"/>
<stop offset="1" stop-color="#FBC391"/>
</linearGradient>
<linearGradient id="paint2_linear_1008_3424" x1="13.2888" y1="10.0669" x2="31.2888" y2="10.0669" gradientUnits="userSpaceOnUse">
<stop stop-color="#1DB779"/>
<stop offset="0.490385" stop-color="#FBE049"/>
<stop offset="1" stop-color="#FBC391"/>
</linearGradient>
<linearGradient id="paint3_linear_1008_3424" x1="13.2888" y1="10.0669" x2="31.2888" y2="10.0669" gradientUnits="userSpaceOnUse">
<stop stop-color="#1DB779"/>
<stop offset="0.490385" stop-color="#FBE049"/>
<stop offset="1" stop-color="#FBC391"/>
</linearGradient>
<linearGradient id="paint4_linear_1008_3424" x1="19.2888" y1="10.0669" x2="26.2888" y2="10.0669" gradientUnits="userSpaceOnUse">
<stop stop-color="#1DB779"/>
<stop offset="0.490385" stop-color="#FBE049"/>
<stop offset="1" stop-color="#FBC391"/>
</linearGradient>
<linearGradient id="paint5_linear_1008_3424" x1="19.2888" y1="10.0669" x2="26.2888" y2="10.0669" gradientUnits="userSpaceOnUse">
<stop stop-color="#1DB779"/>
<stop offset="0.490385" stop-color="#FBE049"/>
<stop offset="1" stop-color="#FBC391"/>
</linearGradient>
</defs>
</svg>
