<svg width="63" height="51" viewBox="0 0 63 51" fill="none" xmlns="http://www.w3.org/2000/svg">
<path d="M62.0267 25.0019C59.243 23.3579 56.4594 21.7749 53.6152 20.131C51.0131 18.6089 48.411 17.0867 45.8089 15.5646C45.2643 15.2602 44.9012 14.8948 44.5987 14.3469C42.4807 10.572 40.3022 6.73617 38.1842 2.96127L37.0345 0.952044C36.7319 0.464959 36.4898 0.0996453 36.1267 0.0387597C35.7637 -0.0830114 35.4006 0.0996453 34.9165 0.343188L34.1298 0.769387C33.7062 1.01293 33.3431 1.25647 32.9195 1.43913C27.0497 4.84872 21.1193 8.56274 15.552 12.0941C14.6443 12.703 14.5233 13.1292 15.0679 14.1033L15.4915 14.834C15.7941 15.4428 16.1572 16.0517 16.5203 16.6605C16.6413 16.8432 16.6413 16.9041 16.6413 16.965C16.6413 16.965 16.5808 17.0867 16.3992 17.2085C13.5551 18.9133 10.7109 20.6181 7.80628 22.3838C5.44624 23.7233 3.14672 25.1236 0.847193 26.524C0.242055 26.8893 0 27.3155 0 27.9852C0.0605138 29.5074 0.0605138 30.8469 0 32.1864C0 32.917 0.242055 33.4041 0.907707 33.7694C12.5869 40.5886 21.4824 45.7638 29.7123 50.6347C30.0754 50.8782 30.4384 51 30.8015 51C31.1646 51 31.4672 50.8782 31.8303 50.6347C36.6109 47.7122 41.3914 44.8506 46.172 41.9889L52.768 37.9705C55.9148 36.083 59.001 34.1956 62.1477 32.3081C62.7528 31.9428 62.9949 31.4557 62.9949 30.8469C62.9949 30.3598 62.9949 29.8727 62.9949 29.3856C62.9949 29.1421 62.9949 28.9594 62.9949 28.7159C62.9949 28.5332 62.9949 28.2897 62.9949 28.107C62.9949 27.6808 62.9949 27.1937 62.9949 26.7675C63.0554 25.7325 62.5713 25.3063 62.0267 25.0019ZM31.8908 47.1642V46.9207V46.8598C31.5882 45.8856 32.1328 45.4594 33.0405 44.9114C39.6365 40.9539 46.2326 36.9963 52.8286 33.0387L60.6954 28.2897C60.7559 28.2288 60.8164 28.2288 60.8769 28.1679L60.9374 28.107V28.1679C60.9374 28.2288 60.9374 28.3506 60.9374 28.4114C60.9374 28.5332 60.9374 28.655 60.9374 28.7768C60.9374 29.0203 60.9374 29.203 60.9374 29.4465C61.0584 30.238 60.8164 30.6642 59.9692 31.2122C52.8286 35.4742 45.5669 39.8579 38.5473 44.1199L32.0723 47.8948C32.0118 47.8948 31.9513 47.9557 31.9513 48.0166C31.9513 48.0166 31.8908 48.0166 31.8908 48.0775V48.0166C31.8908 47.9557 31.8908 47.834 31.8908 47.7731C31.8908 47.5904 31.8908 47.3469 31.8908 47.1642ZM29.7123 47.7731C29.7123 47.834 29.7123 47.9557 29.7123 48.0166L29.1071 47.6513C28.381 47.2251 27.7153 46.8598 26.9892 46.4336L21.6034 43.3284C15.31 39.6753 8.95604 35.9613 2.60209 32.2472C2.23901 32.0646 2.1785 31.8819 2.1785 31.5166C2.23901 31.0904 2.1785 30.6642 2.1785 30.2989C2.1785 30.1162 2.1785 29.9336 2.1785 29.7509C2.1785 29.69 2.1785 29.6292 2.1785 29.5074C2.23901 29.5074 2.29952 29.5683 2.36004 29.6292C4.47802 30.8469 6.596 32.1255 8.71399 33.3432L13.2525 35.9613C18.5172 39.0664 23.7819 42.1107 29.1071 45.2159C29.6518 45.5203 29.8333 45.8247 29.7728 46.3727C29.6518 46.8598 29.6518 47.286 29.7123 47.7731ZM3.32826 27.6808C3.26775 27.6808 3.26775 27.6199 3.20723 27.6199L3.5098 27.4373C3.99391 27.1328 4.41751 26.8893 4.90162 26.5849L17.7911 18.8524L17.8516 18.7915C17.9121 18.7915 17.9121 18.7306 17.9726 18.7306C18.2752 18.548 18.3962 18.548 18.3962 18.548C18.3962 18.548 18.4567 18.6089 18.4567 18.9742V20.9834C18.4567 22.7491 18.4567 24.5757 18.4567 26.3413C18.4567 27.072 18.6988 27.559 19.3039 27.9244C23.2978 30.238 27.4128 32.6126 31.4067 34.9871C31.9513 35.2915 32.4959 35.2915 33.0405 34.9871C36.1873 33.1605 39.334 31.334 42.4807 29.5074C43.0253 29.203 43.2674 28.7768 43.2069 28.1679C43.2069 27.2546 43.2069 26.3413 43.2069 25.4889C43.2069 24.5757 43.2069 23.6624 43.2069 22.81C43.2674 22.6273 44.1146 21.9576 45.0828 21.4096C45.5064 21.1661 45.9905 20.9225 46.4141 20.6181C47.2613 20.131 47.4428 19.7048 47.1403 18.9742C51.1947 21.3487 55.2491 23.7233 59.3035 26.0978L59.7876 26.4022C59.7876 26.4022 59.7271 26.4022 59.7271 26.4631C59.6666 26.4631 59.6061 26.524 59.5456 26.524C51.9814 31.0904 44.4171 35.6568 36.7924 40.2232L33.7062 42.1107C32.7985 42.6587 31.9513 43.2066 31.0436 43.7546C30.8015 43.8764 30.6805 43.8764 30.4384 43.7546C24.6291 40.1624 18.8198 36.7528 13.0105 33.3432L3.44929 27.7417L3.32826 27.6808ZM31.1646 32.1255C31.1646 32.1255 31.1646 32.1864 31.1646 32.2472C31.1646 32.2472 31.1041 32.2472 31.1041 32.1864C30.3779 31.6993 29.5912 31.2731 28.8046 30.8469C28.623 30.7251 28.5625 30.6642 28.5625 30.4207C28.5625 29.8118 28.5625 29.1421 28.5625 28.4723C28.5625 27.7417 28.5625 26.9502 28.5625 26.2196C28.5625 25.4889 28.2599 25.0019 27.6548 24.6365C27.1102 24.3321 26.6261 24.0277 26.0814 23.7233C25.7184 23.5406 25.4158 23.2971 25.0527 23.1144C24.7501 22.9317 24.5081 22.8709 24.266 22.8709C24.0845 22.8709 23.903 22.9317 23.7819 22.9926C23.4188 23.1753 23.2373 23.6015 23.2373 24.1495C23.2373 25.0019 23.2373 25.8542 23.2373 26.7675V27.4982L22.8742 27.3155C22.1481 26.8893 21.4219 26.4631 20.6957 26.0369C20.6352 26.1587 20.5747 26.0978 20.5747 25.9151V25.5498C20.5747 22.9317 20.5747 20.3137 20.5747 17.6347C20.5747 17.5129 20.5747 17.452 20.7562 17.3303C22.3296 16.4779 23.903 15.5646 25.4158 14.6513C25.4763 14.5904 25.5368 14.5904 25.5368 14.5904C25.5368 14.5904 25.5973 14.6513 25.5973 14.7122C27.4128 17.8174 29.2282 20.9225 31.0436 23.9668C31.1041 24.0886 31.1041 24.2103 31.1041 24.3321V24.5757C31.1646 27.1328 31.1646 29.6292 31.1646 32.1255ZM26.384 29.1421C26.384 29.2638 26.384 29.3856 26.384 29.4465C26.0814 29.2638 25.7789 29.0812 25.5368 28.9594C25.4763 28.8985 25.4158 28.8985 25.4158 28.7159C25.4158 27.7417 25.4158 26.8284 25.4158 25.8542C25.4763 25.8542 25.4763 25.9151 25.5368 25.9151C26.263 26.1587 26.5656 26.6458 26.4445 27.4982C26.3235 28.0461 26.384 28.5941 26.384 29.1421ZM41.0889 23.6015V23.6624C41.0889 24.941 41.0889 26.2196 41.0889 27.4982C41.0889 27.6808 41.0284 27.7417 40.9073 27.8635C39.0919 28.8985 37.337 29.9336 35.5216 30.9686L33.3431 32.2472V27.6199C33.8272 27.9244 34.1903 27.8026 34.7954 27.4373C36.3083 26.4631 37.8816 25.5498 39.3945 24.6365C39.9391 24.3321 40.4232 24.0277 40.9678 23.7233C41.0284 23.6624 41.0889 23.6015 41.0889 23.6015ZM34.3718 25.0627L34.2508 25.1236C34.2508 25.0627 34.1903 25.0019 34.1903 25.0019C32.4959 22.1402 30.862 19.2786 29.1677 16.417L27.1707 13.0074C26.8076 12.3985 26.505 12.0941 26.0814 12.0941C25.8394 12.0941 25.4763 12.2159 25.1132 12.4594L24.3266 12.8856C22.5111 13.9207 20.6957 14.9557 18.9408 15.9908C18.7593 16.1126 18.6988 16.1126 18.6988 16.1126C18.6988 16.1126 18.6383 16.1126 18.5777 15.9299C18.2147 15.1993 17.7911 14.5295 17.3675 13.7989C17.3069 13.6771 17.3069 13.6162 17.3069 13.6162C17.3069 13.6162 17.3069 13.5554 17.428 13.4945C19.667 12.0941 22.5716 10.2675 25.5368 8.38009C25.5973 8.3192 25.6579 8.3192 25.6579 8.3192L25.7184 8.44097L34.1298 23.3579L34.9165 24.6974C34.7349 24.8801 34.5534 25.0019 34.3718 25.0627ZM44.6592 19.0351C42.7227 20.131 40.7863 21.2269 38.9104 22.3838L36.9134 23.5406C36.8529 23.6015 36.7924 23.6015 36.7319 23.6624C36.7319 23.6624 36.7319 23.6015 36.6714 23.6015C36.6714 23.5406 36.6109 23.4797 36.6109 23.4797C35.1585 20.9225 33.7062 18.3653 32.2539 15.8081L30.9831 13.6162C29.8333 11.5461 28.6835 9.53691 27.5338 7.52769C27.4733 7.40592 27.4733 7.34503 27.4733 7.34503C27.4733 7.34503 27.4733 7.28414 27.6548 7.22326C30.6805 5.51846 33.1011 4.05721 35.3401 2.77861C35.4611 2.71773 35.5216 2.71773 35.5216 2.71773C35.5216 2.71773 35.5821 2.77861 35.6426 2.90038C37.2765 5.82289 38.9709 8.80628 40.6048 11.7288L42.2992 14.7122C43.0858 16.1126 43.8725 17.5129 44.6592 18.9133C44.6592 18.9742 44.7802 19.0959 44.7802 19.0959C44.7802 18.9742 44.7197 18.9742 44.6592 19.0351Z" fill="url(#paint0_linear_2464_4439)"/>
<defs>
<linearGradient id="paint0_linear_2464_4439" x1="0" y1="25.4586" x2="63.0147" y2="25.4586" gradientUnits="userSpaceOnUse">
<stop stop-color="#118154"/>
<stop offset="0.5769" stop-color="#D5BE3F"/>
<stop offset="1" stop-color="#DE9452"/>
</linearGradient>
</defs>
</svg>
