<svg width="61" height="59" viewBox="0 0 61 59" fill="none" xmlns="http://www.w3.org/2000/svg">
<g clip-path="url(#clip0_1151_7742)">
<path d="M55.0008 52.5V57.5H3.80078V52.5H7.50078H16.3008H25.0008H33.8008H52.5008H55.0008Z" fill="#94A2B5"/>
<path d="M52.5008 26.3V52.5H33.8008V15L52.5008 26.3Z" fill="#747371"/>
<path d="M30 1.30005H26.3H22.5H18.8H15H11.3H7.5V52.5H16.3H25H33.8V15V1.30005H30Z" fill="#8694AB"/>
<path d="M25.1008 40H16.3008V52.5H25.1008V40Z" fill="#D7DEED"/>
<path d="M7.49922 53.8C6.79922 53.8 6.19922 53.2 6.19922 52.5V1.3C6.19922 0.6 6.79922 0 7.49922 0H33.7992C34.4992 0 35.0992 0.6 35.0992 1.3V15.1C35.0992 15.8 34.4992 16.4 33.7992 16.4C33.0992 16.4 32.4992 15.7 32.4992 15V2.5H8.79922V52.5C8.79922 53.2 8.19922 53.8 7.49922 53.8Z" fill="black"/>
<path d="M52.5 53.8C51.8 53.8 51.2 53.2 51.2 52.5V27L34.9 17.2V52.5C34.9 53.2 34.3 53.8 33.6 53.8C32.9 53.8 32.5 53.2 32.5 52.5V15C32.5 14.5 32.7 14.1 33.1 13.9C33.5 13.7 34 13.7 34.4 13.9L53.2 25.2C53.6 25.4 53.8 25.8 53.8 26.3V52.6C53.8 53.2 53.2 53.8 52.5 53.8Z" fill="black"/>
<path d="M54.9992 58.8C54.2992 58.8 53.6992 58.2 53.6992 57.5V53.7H24.9992C24.2992 53.7 23.6992 53.1 23.6992 52.4C23.6992 51.7 24.2992 51.1 24.9992 51.1H54.9992C55.6992 51.1 56.2992 51.7 56.2992 52.4V57.4C56.2992 58.2 55.6992 58.8 54.9992 58.8Z" fill="black"/>
<path d="M3.8 58.7999C3.1 58.7999 2.5 58.2 2.5 57.5V52.5C2.5 51.8 3.1 51.2 3.8 51.2H16.3C17 51.2 17.6 51.8 17.6 52.5C17.6 53.2 17 53.7999 16.3 53.7999H5V57.5999C5 58.1999 4.4 58.7999 3.8 58.7999Z" fill="black"/>
<path d="M58.8 58.7999H1.3C0.6 58.7999 0 58.2 0 57.5C0 56.8 0.6 56.2 1.3 56.2H58.8C59.5 56.2 60.1 56.8 60.1 57.5C60 58.2 59.4 58.7999 58.8 58.7999Z" fill="black"/>
<path d="M25.0004 53.7999H16.2004C15.5004 53.7999 14.9004 53.2 14.9004 52.5V40C14.9004 39.3 15.5004 38.7 16.2004 38.7H25.0004C25.7004 38.7 26.3004 39.3 26.3004 40V52.5C26.3004 53.2 25.7004 53.7999 25.0004 53.7999ZM17.5004 51.2999H23.8004V41.2999H17.5004V51.2999Z" fill="black"/>
<path d="M37.4992 48.8C36.7992 48.8 36.1992 48.2 36.1992 47.5V46.2C36.1992 45.5 36.7992 44.9 37.4992 44.9C38.1992 44.9 38.7992 45.5 38.7992 46.2V47.5C38.7992 48.2 38.1992 48.8 37.4992 48.8Z" fill="black"/>
<path d="M41.3 48.8C40.6 48.8 40 48.2 40 47.5V46.2C40 45.5 40.6 44.9 41.3 44.9C42 44.9 42.6 45.5 42.6 46.2V47.5C42.5 48.2 41.9 48.8 41.3 48.8Z" fill="black"/>
<path d="M44.9992 48.8C44.2992 48.8 43.6992 48.2 43.6992 47.5V46.2C43.6992 45.5 44.2992 44.9 44.9992 44.9C45.6992 44.9 46.2992 45.5 46.2992 46.2V47.5C46.2992 48.2 45.6992 48.8 44.9992 48.8Z" fill="black"/>
<path d="M48.8 48.8C48.1 48.8 47.5 48.2 47.5 47.5V46.2C47.5 45.5 48.1 44.9 48.8 44.9C49.5 44.9 50.1 45.5 50.1 46.2V47.5C50 48.2 49.4 48.8 48.8 48.8Z" fill="black"/>
<path d="M37.4992 43.8C36.7992 43.8 36.1992 43.2 36.1992 42.5V41.2C36.1992 40.5 36.7992 39.9 37.4992 39.9C38.1992 39.9 38.7992 40.5 38.7992 41.2V42.5C38.7992 43.2 38.1992 43.8 37.4992 43.8Z" fill="black"/>
<path d="M41.3 43.8C40.6 43.8 40 43.2 40 42.5V41.2C40 40.5 40.6 39.9 41.3 39.9C42 39.9 42.6 40.5 42.6 41.2V42.5C42.5 43.2 41.9 43.8 41.3 43.8Z" fill="black"/>
<path d="M44.9992 43.8C44.2992 43.8 43.6992 43.2 43.6992 42.5V41.2C43.6992 40.5 44.2992 39.9 44.9992 39.9C45.6992 39.9 46.2992 40.5 46.2992 41.2V42.5C46.2992 43.2 45.6992 43.8 44.9992 43.8Z" fill="black"/>
<path d="M48.8 43.8C48.1 43.8 47.5 43.2 47.5 42.5V41.2C47.5 40.5 48.1 39.9 48.8 39.9C49.5 39.9 50.1 40.5 50.1 41.2V42.5C50 43.2 49.4 43.8 48.8 43.8Z" fill="black"/>
<path d="M37.4992 38.8C36.7992 38.8 36.1992 38.2 36.1992 37.5V36.2C36.1992 35.5 36.7992 34.9 37.4992 34.9C38.1992 34.9 38.7992 35.5 38.7992 36.2V37.5C38.7992 38.2 38.1992 38.8 37.4992 38.8Z" fill="black"/>
<path d="M41.3 38.8C40.6 38.8 40 38.2 40 37.5V36.2C40 35.5 40.6 34.9 41.3 34.9C42 34.9 42.6 35.5 42.6 36.2V37.5C42.5 38.2 41.9 38.8 41.3 38.8Z" fill="black"/>
<path d="M44.9992 38.8C44.2992 38.8 43.6992 38.2 43.6992 37.5V36.2C43.6992 35.5 44.2992 34.9 44.9992 34.9C45.6992 34.9 46.2992 35.5 46.2992 36.2V37.5C46.2992 38.2 45.6992 38.8 44.9992 38.8Z" fill="black"/>
<path d="M48.8 38.8C48.1 38.8 47.5 38.2 47.5 37.5V36.2C47.5 35.5 48.1 34.9 48.8 34.9C49.5 34.9 50.1 35.5 50.1 36.2V37.5C50 38.2 49.4 38.8 48.8 38.8Z" fill="black"/>
<path d="M37.4992 33.8C36.7992 33.8 36.1992 33.2 36.1992 32.5V31.2C36.1992 30.5 36.7992 29.9 37.4992 29.9C38.1992 29.9 38.7992 30.5 38.7992 31.2V32.5C38.7992 33.2 38.1992 33.8 37.4992 33.8Z" fill="black"/>
<path d="M41.3 33.8C40.6 33.8 40 33.2 40 32.5V31.2C40 30.5 40.6 29.9 41.3 29.9C42 29.9 42.6 30.5 42.6 31.2V32.5C42.5 33.2 41.9 33.8 41.3 33.8Z" fill="black"/>
<path d="M44.9992 33.8C44.2992 33.8 43.6992 33.2 43.6992 32.5V31.2C43.6992 30.5 44.2992 29.9 44.9992 29.9C45.6992 29.9 46.2992 30.5 46.2992 31.2V32.5C46.2992 33.2 45.6992 33.8 44.9992 33.8Z" fill="black"/>
<path d="M48.8 33.8C48.1 33.8 47.5 33.2 47.5 32.5V31.2C47.5 30.5 48.1 29.9 48.8 29.9C49.5 29.9 50.1 30.5 50.1 31.2V32.5C50 33.2 49.4 33.8 48.8 33.8Z" fill="black"/>
<path d="M37.4992 28.8C36.7992 28.8 36.1992 28.2 36.1992 27.5V26.2C36.1992 25.5 36.7992 24.9 37.4992 24.9C38.1992 24.9 38.7992 25.5 38.7992 26.2V27.5C38.7992 28.2 38.1992 28.8 37.4992 28.8Z" fill="black"/>
<path d="M41.3 28.8C40.6 28.8 40 28.2 40 27.5V26.2C40 25.5 40.6 24.9 41.3 24.9C42 24.9 42.6 25.5 42.6 26.2V27.5C42.5 28.2 41.9 28.8 41.3 28.8Z" fill="black"/>
<path d="M44.9992 28.8C44.2992 28.8 43.6992 28.2 43.6992 27.5V26.2C43.6992 25.5 44.2992 24.9 44.9992 24.9C45.6992 24.9 46.2992 25.5 46.2992 26.2V27.5C46.2992 28.2 45.6992 28.8 44.9992 28.8Z" fill="black"/>
<path d="M37.4992 23.8C36.7992 23.8 36.1992 23.2 36.1992 22.5V21.2C36.1992 20.5 36.7992 19.9 37.4992 19.9C38.1992 19.9 38.7992 20.5 38.7992 21.2V22.5C38.7992 23.2 38.1992 23.8 37.4992 23.8Z" fill="black"/>
</g>
<defs>
<clipPath id="clip0_1151_7742">
<rect width="60.1" height="58.8" fill="white"/>
</clipPath>
</defs>
</svg>
