<svg width="46" height="46" viewBox="0 0 46 46" fill="none" xmlns="http://www.w3.org/2000/svg">
<path d="M45.58 9.82111C44.8451 8.34952 43.5852 7.66629 41.9578 7.61373C41.2753 7.61373 40.5929 7.61373 39.8579 7.61373C40.4354 6.93049 41.0653 6.45749 41.5903 5.82681C42.3778 4.88079 42.3778 3.35664 41.5903 2.41063C41.1178 1.8325 40.5404 1.30694 40.0154 0.781371C39.7004 0.466031 39.3855 0.255805 38.9655 0.150691C37.7581 -0.217205 36.7081 0.0981347 35.8157 0.991597C33.7158 3.09386 31.616 5.19613 29.5161 7.29839C29.3061 7.50862 29.0437 7.61373 28.7287 7.61373C21.5367 7.61373 14.2922 7.61373 7.10014 7.61373C6.73267 7.61373 6.36519 7.61373 5.99772 7.71884C4.63281 8.08674 3.89786 9.13787 3.84536 10.662C3.84536 12.7643 3.84536 14.8665 3.84536 16.9688C3.84536 17.2841 3.74037 17.5469 3.53039 17.8097C2.48046 18.8083 1.48302 19.8594 0.433096 20.9106C-0.144365 21.4887 -0.144365 22.0142 0.433096 22.5398C1.48302 23.5909 2.48046 24.5895 3.53039 25.6406C3.74037 25.8509 3.84536 26.1137 3.84536 26.429C3.84536 29.3196 3.84536 32.2102 3.84536 35.1008C3.84536 35.4162 3.84536 35.7841 3.95036 36.0994C4.31783 37.5184 5.42026 38.3068 6.94265 38.3068C9.88245 38.3068 12.7698 38.3068 15.7096 38.3068C16.0245 38.3068 16.2345 38.4119 16.497 38.6221C18.8068 40.9346 21.1167 43.2471 23.4265 45.5596C24.004 46.1377 24.4765 46.1377 25.0539 45.6122C26.8388 43.8778 28.5712 42.0909 30.3561 40.3039C30.8285 39.8309 30.8285 39.2528 30.3561 38.7798C30.2511 38.6747 30.0936 38.517 29.9361 38.3594C30.0936 38.3594 30.0936 38.3068 30.1461 38.3068C32.7709 38.3068 35.3957 38.3068 38.0205 38.3068C38.283 38.3068 38.3355 38.4119 38.3355 38.6747C38.3355 40.0937 38.3355 41.5127 38.3355 42.9318C38.3355 43.7201 38.703 44.088 39.4904 44.088C40.3304 44.088 41.2228 44.088 42.0628 44.088C44.3726 44.0355 46 42.4062 46 40.1463C46 30.6335 46 21.1208 46 11.608C45.9475 10.9774 45.8425 10.3467 45.58 9.82111ZM35.5532 3.88221C36.0782 3.35665 36.6031 2.83108 37.1281 2.30551C37.7056 1.72739 38.178 1.72739 38.7555 2.30551C39.123 2.67341 39.4379 2.98875 39.8054 3.35665C40.0154 3.56687 40.1729 3.82965 40.1729 4.09244C40.1729 4.40778 40.0154 4.618 39.8579 4.82823C39.2805 5.40635 38.703 5.93192 38.178 6.51004C38.0205 6.72027 37.9156 6.66771 37.7581 6.51004C37.0231 5.77425 36.3407 5.03846 35.6057 4.35522C35.3432 4.14499 35.3957 4.03988 35.5532 3.88221ZM33.7683 5.66914C33.8733 5.56402 33.9783 5.40635 34.1358 5.61658C34.9233 6.40493 35.7107 7.19328 36.4981 7.98163C36.5506 8.03418 36.5506 8.08674 36.6031 8.1393C36.4981 8.24441 36.4457 8.29697 36.3407 8.40208C34.2933 10.4518 32.2459 12.5015 30.2511 14.4986C28.9387 15.8126 27.6787 17.0739 26.3663 18.3878C26.1563 18.5981 25.9989 18.6506 25.7889 18.3878C25.1064 17.652 24.3715 16.9688 23.689 16.2856C23.5315 16.1279 23.479 16.0228 23.689 15.8651C26.9963 12.4489 30.4086 9.08532 33.7683 5.66914ZM24.214 19.6492C23.374 19.912 22.5341 20.2273 21.5892 20.5427C21.9041 19.6492 22.1666 18.8083 22.4816 17.9148C23.0591 18.4404 23.6365 19.0185 24.214 19.6492ZM13.8197 36.4148C11.5098 36.4148 9.1475 36.4148 6.83766 36.4148C6.10271 36.4148 5.73524 36.0469 5.73524 35.3636C5.73524 32.946 5.73524 30.5284 5.73524 28.1108C5.73524 28.1108 5.73524 28.0583 5.73524 28.0057C8.51755 30.7912 11.2999 33.5767 14.0822 36.3622C14.0297 36.4673 13.9247 36.4148 13.8197 36.4148ZM28.0987 39.7784C26.8388 40.9872 25.6314 42.2485 24.3715 43.5099C24.214 43.6676 24.109 43.6676 23.9515 43.5099C16.812 36.3096 9.61997 29.1094 2.48046 21.9617C2.27047 21.7515 2.32297 21.6989 2.48046 21.5412C3.74037 20.3324 4.94779 19.0711 6.15521 17.8623C6.3127 17.7046 6.41769 17.7046 6.57518 17.8623C7.31013 18.5981 7.99258 19.3339 8.72753 20.0171C8.93752 20.2273 8.88502 20.3324 8.72753 20.4901C8.20257 21.0157 7.6776 21.5412 7.10014 22.0668C6.94265 22.2245 6.89016 22.3296 7.10014 22.5398C7.41512 22.8026 7.7301 23.1179 7.99258 23.4333C8.15007 23.6435 8.25506 23.6435 8.46505 23.4333C8.99001 22.9077 9.51498 22.3821 10.0399 21.804C10.1974 21.6463 10.3024 21.5938 10.5124 21.804C11.1949 22.4873 11.8773 23.1705 12.5598 23.8537C12.7698 24.064 12.7173 24.1691 12.5598 24.3267C12.0348 24.8523 11.5098 25.3779 10.9324 25.9034C10.7749 26.0611 10.7224 26.1662 10.9324 26.3764C11.2474 26.6918 11.5623 26.9546 11.8248 27.2699C12.0348 27.4801 12.1398 27.4276 12.2973 27.2699C12.8223 26.7443 13.3472 26.2188 13.8722 25.6406C14.0297 25.483 14.1347 25.4304 14.3446 25.6406C15.0271 26.3239 15.7096 27.0071 16.392 27.6904C16.5495 27.848 16.5495 27.9531 16.392 28.1108C15.867 28.6364 15.2896 29.2145 14.7646 29.7401C14.6071 29.8977 14.5546 30.0028 14.7646 30.1605C15.0796 30.4759 15.3946 30.7912 15.7096 31.1065C15.867 31.2642 15.972 31.2642 16.1295 31.1065C16.6545 30.5284 17.232 30.0028 17.7569 29.4247C17.8619 29.3196 17.9669 29.2145 18.1244 29.3722C18.8593 30.108 19.5943 30.8438 20.2767 31.527C20.3292 31.5795 20.3292 31.6321 20.3817 31.6321C20.3817 31.7372 20.2767 31.8423 20.2242 31.8949C19.6993 32.4205 19.1743 32.946 18.5969 33.4716C18.3869 33.6818 18.4394 33.7869 18.5969 33.9446C18.9118 34.2599 19.2268 34.5227 19.4893 34.8381C19.6468 34.9957 19.7518 34.9957 19.9093 34.8381C20.4342 34.2599 21.0117 33.7344 21.5367 33.2088C21.6941 33.0511 21.7991 32.9986 22.0091 33.2088C22.6916 33.892 23.374 34.5753 24.0565 35.2585C24.2665 35.4687 24.214 35.5213 24.0565 35.679C23.5315 36.2045 23.0066 36.7301 22.4291 37.2557C22.2191 37.4133 22.2191 37.571 22.4291 37.7287C22.7441 37.9915 23.0591 38.3068 23.3215 38.6221C23.479 38.7798 23.584 38.7798 23.7415 38.6221C24.2665 38.0966 24.8439 37.5184 25.3689 36.9929C25.5264 36.8352 25.6314 36.7827 25.7889 36.9929C26.5238 37.7287 27.2588 38.4645 27.9937 39.2003C28.2562 39.5156 28.2562 39.5682 28.0987 39.7784ZM42.0103 42.1434C41.8003 42.1434 41.5378 42.1434 41.3278 42.1434C41.0128 42.1434 40.7504 42.1434 40.4354 42.1434C40.2254 42.1434 40.1729 42.0909 40.1729 41.8806C40.1729 40.777 40.1729 39.7258 40.1729 38.6221C40.1729 38.4119 40.2254 38.3068 40.4879 38.3068C41.0128 38.3068 41.5378 38.3068 42.0628 38.3068C43.2702 38.3594 44.0576 39.1477 44.0051 40.3039C44.0051 41.3551 43.1652 42.1434 42.0103 42.1434ZM43.6377 36.7301C43.0602 36.4673 42.4302 36.3622 41.8528 36.3622C37.3381 36.3622 32.8234 36.3622 28.3087 36.3622C27.9937 36.3622 27.7837 36.2571 27.5213 36.0469C20.7492 29.3196 13.9772 22.5398 7.20514 15.76C6.73267 15.287 6.2602 15.1819 5.68274 15.6023C5.68274 15.3921 5.68274 15.287 5.68274 15.1819C5.68274 13.7629 5.68274 12.3438 5.68274 10.9248C5.68274 9.92622 5.99772 9.61088 6.99515 9.61088C11.4573 9.61088 15.9195 9.61088 20.4342 9.61088C22.5341 9.61088 24.5815 9.61088 26.6813 9.61088C26.8388 9.61088 26.9438 9.61088 27.1013 9.61088C27.1013 9.82111 26.9438 9.87366 26.8388 9.97878C25.1064 11.7131 23.374 13.4475 21.6942 15.1819C21.3792 15.4972 21.1692 15.8651 21.0117 16.2856C20.4342 18.0199 19.8568 19.8069 19.2793 21.5412C18.9118 22.5924 19.5418 23.1179 20.4342 23.1179C24.9489 23.1179 29.4636 23.1179 34.0308 23.1179C34.3983 23.1179 34.5558 23.0654 34.5033 22.6449C34.4508 22.3296 34.4508 21.9617 34.5033 21.6463C34.5558 21.2785 34.4508 21.1733 34.0833 21.1733C31.6685 21.1733 29.2536 21.1733 26.7863 21.1733C26.6288 21.1733 26.4713 21.2259 26.4188 21.1733C28.6762 18.9134 30.9335 16.6535 33.2434 14.3935C34.7133 12.9219 36.1832 11.4504 37.6531 9.97878C37.8631 9.76855 38.0205 9.71599 38.283 9.71599C39.4904 9.71599 40.6979 9.71599 41.9053 9.71599C43.2702 9.71599 44.0576 10.5043 44.0576 11.8708C44.0576 20.1222 44.0576 28.4262 44.0576 36.6775C44.0576 36.8352 44.0051 36.9403 43.6377 36.7301Z" fill="url(#paint0_linear_2464_4420)"/>
<defs>
<linearGradient id="paint0_linear_2464_4420" x1="-0.0393723" y1="22.9971" x2="45.9441" y2="22.9971" gradientUnits="userSpaceOnUse">
<stop stop-color="#118154"/>
<stop offset="0.5769" stop-color="#D5BE3F"/>
<stop offset="1" stop-color="#DE9452"/>
</linearGradient>
</defs>
</svg>
