<svg width="51" height="49" viewBox="0 0 51 49" fill="none" xmlns="http://www.w3.org/2000/svg">
<path d="M49.7599 41.9V42.07C49.6799 41.23 49.3399 40.38 48.7499 39.87C48.1599 39.28 47.3999 38.94 46.5499 38.94C44.8599 38.94 43.5099 40.29 43.4199 42.07V9.63C43.4199 8.7 43.7599 7.86 44.3499 7.26C44.9399 6.67 45.6999 6.25 46.5499 6.25C48.3199 6.25 49.7599 7.77 49.7599 9.63V41.9Z" fill="#AFB9D2"/>
<path d="M48.7497 39.88C48.1597 39.29 47.3997 38.95 46.5497 38.95C44.8597 38.95 43.5097 40.3 43.4197 42.08V9.45996H7.51969V42.07C7.43969 41.23 7.09969 40.38 6.58969 39.87C5.99969 39.28 5.23969 38.94 4.38969 38.94C2.69969 38.94 1.34969 40.29 1.17969 42.07C1.25969 45.11 3.79969 47.56 6.83969 47.56H44.0097C45.5297 47.56 46.9697 46.97 48.0697 45.96C49.0797 44.95 49.6697 43.59 49.7597 42.16C49.6797 41.23 49.2497 40.47 48.7497 39.88Z" fill="#D7DEED"/>
<path d="M46.5498 38.95C44.8598 38.95 43.5098 40.3 43.4198 42.08V9.45996H7.42984V42.07C7.34984 40.3 5.98984 38.94 4.29984 38.94C2.60984 38.94 1.25984 40.29 1.08984 42.07C1.16984 45.11 3.70984 47.56 6.74984 47.56H43.9198C46.9598 47.56 49.5798 45.11 49.5798 42.07C49.5798 40.38 48.2298 38.94 46.5398 38.94L46.5498 38.95Z" fill="#D7DEED"/>
<path d="M43.42 9.62996V17.99H30.75V9.45996H43.42V9.62996Z" fill="#AFB9D2"/>
<path d="M30.7509 1.09998H20.1909H9.63086V5.31998H20.1909H30.7509H41.3109V1.09998H30.7509Z" fill="#FF7979"/>
<path d="M30.7495 1.09998H20.1895V5.31998H30.7495V1.09998Z" fill="#D65B5B"/>
<path d="M7.42984 42.07C7.34984 41.23 7.00984 40.47 6.49984 39.87C5.90984 39.28 5.14984 38.94 4.29984 38.94C2.60984 38.94 1.25984 40.29 1.08984 42.07V9.63C1.08984 7.77 2.52984 6.25 4.29984 6.25C5.13984 6.25 5.98984 6.59 6.49984 7.26C7.08984 7.85 7.42984 8.7 7.42984 9.63V42.07Z" fill="#AFB9D2"/>
<path d="M44.0102 48.66H6.84023C6.25023 48.66 5.74023 48.1501 5.74023 47.5601C5.74023 46.9701 6.25023 46.46 6.84023 46.46H44.0102C45.2802 46.46 46.3802 45.9501 47.3102 45.1101C48.1502 44.2701 48.6602 43.17 48.6602 41.98V41.9001C48.6602 41.3101 49.1702 40.8 49.7602 40.8C50.3502 40.8 50.8602 41.3101 50.8602 41.9001V42.07C50.8602 43.76 50.1002 45.3701 48.8302 46.6301C47.4802 47.9001 45.7902 48.66 44.0102 48.66Z" fill="black"/>
<path d="M43.4203 43.17C42.8303 43.17 42.3203 42.66 42.3203 42.07V41.82C42.4903 39.54 44.2603 37.85 46.4603 37.85C47.5603 37.85 48.5703 38.27 49.4203 39.03C50.1803 39.79 50.6003 40.72 50.6903 41.82V42.07C50.6903 42.66 50.1803 43.17 49.5903 43.17C49.0003 43.17 48.5803 42.75 48.5803 42.16C48.5803 41.57 48.3303 41.06 47.9003 40.64C47.4703 40.22 46.9703 40.05 46.4603 40.05C45.3603 40.05 44.4303 40.98 44.4303 42.16C44.4303 42.75 44.0103 43.17 43.4203 43.17Z" fill="black"/>
<path d="M43.4198 10.73C43.1698 10.73 42.9998 10.65 42.8298 10.56H32.8598C32.2698 10.56 31.7598 10.05 31.7598 9.54995C31.7598 8.95995 32.2698 8.44995 32.8598 8.44995H43.4198C44.0098 8.44995 44.5198 8.95995 44.5198 9.54995V9.71995C44.4398 10.23 44.0098 10.73 43.4198 10.73Z" fill="black"/>
<path d="M49.7603 43.09C49.1703 43.09 48.6603 42.58 48.6603 41.99V9.63002C48.6603 8.36002 47.7303 7.35002 46.5503 7.35002C46.0403 7.35002 45.5403 7.60002 45.1103 8.03002C44.6803 8.46002 44.5203 9.04002 44.5203 9.72002V42.16C44.5203 42.75 44.0103 43.26 43.4203 43.26C42.8303 43.26 42.3203 42.75 42.3203 42.16V9.63002C42.3203 8.45002 42.7403 7.35002 43.5003 6.50002C44.2603 5.66002 45.3603 5.15002 46.4603 5.15002C48.8303 5.15002 50.6803 7.09002 50.6803 9.54002V41.98C50.7603 42.66 50.2603 43.08 49.7503 43.08L49.7603 43.09Z" fill="black"/>
<path d="M7.43008 10.73C6.84008 10.73 6.33008 10.22 6.33008 9.62999V9.45999C6.33008 8.86999 6.84008 8.35999 7.43008 8.35999H32.7701C33.3601 8.35999 33.8701 8.86999 33.8701 9.45999C33.8701 10.05 33.3601 10.47 32.7701 10.47H8.03008C7.86008 10.64 7.69008 10.72 7.44008 10.72L7.43008 10.73Z" fill="black"/>
<path d="M7.43008 43.17C6.84008 43.17 6.42008 42.75 6.42008 42.16C6.42008 41.57 6.17008 40.98 5.74008 40.64C5.40008 40.22 4.90008 40.05 4.30008 40.05C3.20008 40.05 2.27008 40.98 2.19008 42.16C2.19008 42.67 1.68008 43.17 1.18008 43.17C0.590078 43.17 0.0800781 42.66 0.0800781 42.07V41.82C0.250078 39.54 2.11008 37.85 4.30008 37.85C5.40008 37.85 6.41008 38.27 7.17008 39.03C7.93008 39.79 8.35008 40.72 8.44008 41.82V42.07C8.52008 42.66 8.02008 43.17 7.43008 43.17Z" fill="black"/>
<path d="M6.84008 48.66C3.21008 48.66 0.170078 45.79 0.0800781 42.15V41.98C0.0800781 41.39 0.590078 40.88 1.18008 40.88C1.77008 40.88 2.28008 41.39 2.28008 41.98V42.06C2.36008 44.51 4.39008 46.54 6.93008 46.54C7.52008 46.54 8.03008 47.05 8.03008 47.64C7.95008 48.15 7.44008 48.65 6.85008 48.65L6.84008 48.66Z" fill="black"/>
<path d="M7.43023 43.09C6.84023 43.09 6.33023 42.58 6.33023 41.99V9.62999C6.33023 8.94999 6.08023 8.35999 5.74023 7.93999C5.32023 7.51999 4.81024 7.25999 4.30023 7.25999C3.12023 7.25999 2.19023 8.26999 2.19023 9.53999V41.98C2.19023 42.57 1.68023 43.08 1.09023 43.08C0.500234 43.08 -0.00976562 42.57 -0.00976562 41.98V9.62999C-0.00976562 7.17999 1.85023 5.23999 4.21023 5.23999C5.31023 5.23999 6.41023 5.74999 7.17023 6.58999C7.93023 7.42999 8.35023 8.52999 8.35023 9.71999V42.16C8.52024 42.67 8.01023 43.09 7.42023 43.09H7.43023Z" fill="black"/>
<path d="M37.0898 45.45H13.8598C13.2698 45.45 12.7598 44.94 12.7598 44.35C12.7598 43.76 13.2698 43.25 13.8598 43.25H37.0898C37.6798 43.25 38.1898 43.76 38.1898 44.35C38.1098 44.94 37.5998 45.45 37.0898 45.45Z" fill="black"/>
<path d="M30.7504 31.77C30.1604 31.77 29.6504 31.26 29.6504 30.67V9.54995C29.6504 8.95995 30.1604 8.44995 30.7504 8.44995C31.3404 8.44995 31.7604 8.95995 31.7604 9.54995V30.67C31.7604 31.26 31.2504 31.77 30.7504 31.77Z" fill="black"/>
<path d="M43.4204 19.09H30.7504C30.1604 19.09 29.6504 18.58 29.6504 17.99C29.6504 17.4 30.1604 16.89 30.7504 16.89H43.4204C44.0104 16.89 44.5204 17.4 44.5204 17.99C44.4404 18.58 43.9304 19.09 43.4204 19.09Z" fill="black"/>
<path d="M15.9711 39.11C15.3811 39.11 14.8711 38.6 14.8711 38.01V19.09C14.8711 18.5 15.3811 17.99 15.9711 17.99C16.5611 17.99 17.0711 18.5 17.0711 19.09V38.1C16.9911 38.61 16.4811 39.11 15.9711 39.11Z" fill="black"/>
<path d="M30.7502 27.54H19.0902C18.5002 27.54 17.9902 27.03 17.9902 26.44C17.9902 25.85 18.5002 25.34 19.0902 25.34H30.7502C31.3402 25.34 31.8502 25.85 31.8502 26.44C31.8502 27.03 31.2602 27.54 30.7502 27.54Z" fill="black"/>
<path d="M43.4211 35.99H34.9711C34.3811 35.99 33.8711 35.48 33.8711 34.89C33.8711 34.3 34.3811 33.79 34.9711 33.79H43.4211C44.0111 33.79 44.5211 34.3 44.5211 34.89C44.5211 35.48 43.9311 35.99 43.4211 35.99Z" fill="black"/>
<path d="M15.9699 24.33H7.51992C6.92992 24.33 6.41992 23.82 6.41992 23.23C6.41992 22.64 6.92992 22.13 7.51992 22.13H15.9699C16.5599 22.13 17.0699 22.64 17.0699 23.23C16.9899 23.82 16.4799 24.33 15.9699 24.33Z" fill="black"/>
<path d="M23.3207 19.0899C22.7307 19.0899 22.2207 18.5799 22.2207 17.9899V9.53994C22.2207 8.94994 22.7307 8.43994 23.3207 8.43994C23.9107 8.43994 24.4207 8.94994 24.4207 9.53994V17.9899C24.4207 18.5799 23.9107 19.0899 23.3207 19.0899Z" fill="black"/>
<path d="M23.321 14.87H15.891C15.301 14.87 14.791 14.36 14.791 13.77C14.791 13.18 15.301 12.67 15.891 12.67H23.321C23.911 12.67 24.421 13.18 24.421 13.77C24.421 14.36 23.911 14.87 23.321 14.87Z" fill="black"/>
<path d="M24.4203 45.4501C23.8303 45.4501 23.3203 44.94 23.3203 44.35V35.9001C23.3203 35.3101 23.8303 34.8 24.4203 34.8C25.0103 34.8 25.5203 35.3101 25.5203 35.9001V44.35C25.4403 44.94 24.9303 45.4501 24.4203 45.4501Z" fill="black"/>
<path d="M20.1893 6.42H9.6293C9.0393 6.42 8.5293 5.91 8.5293 5.32V1.1C8.5293 0.51 9.0393 0 9.6293 0H20.1893C20.7793 0 21.2893 0.51 21.2893 1.1C21.2893 1.69 20.7793 2.2 20.1893 2.2H10.6393V4.31H20.1893C20.7793 4.31 21.2893 4.82 21.2893 5.41C21.2093 5.92 20.6993 6.42 20.1893 6.42Z" fill="black"/>
<path d="M30.7498 6.42H20.1898C19.5998 6.42 19.0898 5.91 19.0898 5.32V1.1C19.0898 0.51 19.5998 0 20.1898 0H30.7498C31.3398 0 31.8498 0.51 31.8498 1.1C31.8498 1.69 31.3398 2.2 30.7498 2.2H21.1998V4.31H30.7498C31.3398 4.31 31.8498 4.82 31.8498 5.41C31.7698 5.92 31.2598 6.42 30.7498 6.42Z" fill="black"/>
<path d="M41.3104 6.42H30.7504C30.1604 6.42 29.6504 5.91 29.6504 5.32V1.1C29.6504 0.51 30.1604 0 30.7504 0H41.3104C41.9004 0 42.4104 0.51 42.4104 1.1V5.32C42.3304 5.91 41.8204 6.42 41.3104 6.42ZM31.7604 4.31H40.2104V2.2H31.7604V4.31Z" fill="black"/>
</svg>
